<svg width="70" height="70" viewBox="0 0 70 70" fill="none" xmlns="http://www.w3.org/2000/svg">
<g clip-path="url(#clip0_404_223)">
<path d="M35.5 64C51.2401 64 64 51.2401 64 35.5C64 19.7599 51.2401 7 35.5 7C19.7599 7 7 19.7599 7 35.5C7 51.2401 19.7599 64 35.5 64Z" fill="white"/>
<path d="M21.7846 25.1899H19.0166V48.0079H21.7846V25.1899Z" fill="#FFD900"/>
<mask id="mask0_404_223" style="mask-type:luminance" maskUnits="userSpaceOnUse" x="0" y="0" width="70" height="70">
<path d="M70 0H0V70H70V0Z" fill="white"/>
</mask>
<g mask="url(#mask0_404_223)">
<path d="M53.7817 10.8659V59.1309C53.7819 59.6993 53.6702 60.2622 53.453 60.7874C53.2357 61.3125 52.9171 61.7898 52.5154 62.1919C52.1137 62.594 51.6367 62.913 51.1118 63.1307C50.5868 63.3485 50.024 63.4607 49.4557 63.4609H23.3387C22.1914 63.4596 21.0916 63.0027 20.2812 62.1908C19.4707 61.3788 19.0159 60.2782 19.0166 59.1309V48.0069H21.7846V53.9789C21.7846 54.5624 22.0164 55.122 22.429 55.5346C22.8416 55.9472 23.4012 56.1789 23.9847 56.1789H48.8116C49.1006 56.1789 49.3866 56.122 49.6536 56.0115C49.9205 55.9009 50.163 55.7389 50.3673 55.5346C50.5716 55.3303 50.7336 55.0878 50.8442 54.8209C50.9547 54.5539 51.0117 54.2679 51.0117 53.9789V11.6709C51.0123 11.3819 50.9559 11.0955 50.8455 10.8283C50.7352 10.561 50.5732 10.3183 50.3688 10.1138C50.1643 9.90942 49.9215 9.7474 49.6543 9.63707C49.3871 9.52674 49.1007 9.47029 48.8116 9.47095H45.7846V10.4409C45.7849 10.7055 45.733 10.9675 45.632 11.2121C45.531 11.4566 45.3828 11.6788 45.1958 11.866C45.0089 12.0532 44.7869 12.2018 44.5425 12.3032C44.2982 12.4046 44.0362 12.4568 43.7716 12.4569H29.0296C28.4951 12.4567 27.9824 12.2442 27.6044 11.8662C27.2264 11.4882 27.0139 10.9755 27.0136 10.4409V9.47095H23.9826C23.3992 9.47095 22.8396 9.70273 22.427 10.1153C22.0144 10.5279 21.7827 11.0875 21.7827 11.6709V25.1919H19.0146V10.8659C19.0144 10.2983 19.126 9.73617 19.3431 9.21168C19.5602 8.68719 19.8786 8.21063 20.2799 7.80925C20.6813 7.40786 21.1579 7.08951 21.6824 6.8724C22.2069 6.6553 22.769 6.54368 23.3366 6.54395H49.4557C50.0236 6.54342 50.586 6.65483 51.1108 6.87179C51.6357 7.08876 52.1126 7.40703 52.5144 7.80842C52.9161 8.2098 53.2348 8.68643 53.4523 9.21106C53.6697 9.73569 53.7817 10.298 53.7817 10.8659Z" fill="#FFD900"/>
<path d="M31.8008 59.677H40.9998" stroke="black" stroke-linecap="round" stroke-linejoin="round"/>
<path d="M33.5998 25.1859L21.7868 25.1929H19.0158H11.8728C11.3667 25.1942 10.8817 25.3961 10.5241 25.7543C10.1665 26.1125 9.96537 26.5978 9.96484 27.1039L9.97184 46.1039C9.97343 46.6099 10.1754 47.0946 10.5336 47.452C10.8917 47.8094 11.3769 48.0104 11.8828 48.0109H13.6728H20.3998H21.7838L33.6068 47.9999" fill="#F7F7F7"/>
<path d="M33.6125 48.002L33.6035 25.184" stroke="black" stroke-linecap="round" stroke-linejoin="round" stroke-dasharray="5.25 3.85"/>
<path d="M16.6777 48.011H21.7847L33.6077 48" stroke="black" stroke-linecap="round" stroke-linejoin="round"/>
<path d="M33.5998 25.1859L21.7868 25.1929H19.0158H11.8728C11.3667 25.1942 10.8817 25.3961 10.5241 25.7543C10.1665 26.1125 9.96537 26.5978 9.96484 27.1039L9.97184 46.1039C9.97343 46.6099 10.1754 47.0946 10.5336 47.452C10.8917 47.8094 11.3769 48.0104 11.8828 48.0109H13.0238" stroke="black" stroke-linecap="round" stroke-linejoin="round"/>
<path d="M29.828 42.157C29.448 45.134 25.736 46.868 22.917 44.094C20.935 40.667 23.549 37.508 26.526 37.889C27.5295 38.0176 28.4408 38.5395 29.0596 39.3398C29.6784 40.1401 29.9541 41.1534 29.826 42.157" fill="#FFD900"/>
</g>
</g>
<defs>
<clipPath id="clip0_404_223">
<rect width="70" height="70" fill="white"/>
</clipPath>
</defs>
</svg>
