<svg width="15" height="15" viewBox="0 0 15 15" fill="none" xmlns="http://www.w3.org/2000/svg">
<g clip-path="url(#clip0_408_202)">
<path d="M0.231934 4.65997H3.15088V14.037H0.231934V4.65997ZM1.69189 1.18508e-06C2.13994 1.10664e-06 2.56981 0.17791 2.88672 0.49463C3.20363 0.81135 3.38157 1.24092 3.38184 1.68897C3.38184 2.13727 3.20387 2.56724 2.88696 2.88434C2.57006 3.20143 2.1402 3.37974 1.69189 3.38001C1.24332 3.38001 0.813132 3.20186 0.49585 2.88477C0.178567 2.56767 0.000265114 2.13754 0 1.68897C0.000131216 1.46695 0.0440361 1.24717 0.12915 1.04212C0.214265 0.83706 0.338964 0.650749 0.496094 0.493898C0.653224 0.337046 0.839716 0.212681 1.04492 0.127931C1.25013 0.0431806 1.46988 -0.000261597 1.69189 1.18508e-06Z" fill="#010202"/>
<path d="M4.98047 4.65896H7.78052V5.94198H7.81836C8.09828 5.46336 8.50296 5.06969 8.98901 4.80288C9.47507 4.53608 10.0243 4.40614 10.5784 4.42697C13.5294 4.42697 14.0735 6.36797 14.0735 8.89297V14.036H11.1614V9.47696C11.1614 8.38896 11.1405 6.98996 9.64648 6.98996C8.12948 6.98996 7.89746 8.174 7.89746 9.397V14.035H4.98438L4.98047 4.65896Z" fill="#010202"/>
</g>
<defs>
<clipPath id="clip0_408_202">
<rect width="14.069" height="14.036" fill="white"/>
</clipPath>
</defs>
</svg>
