<svg width="19" height="13" viewBox="0 0 19 13" fill="none" xmlns="http://www.w3.org/2000/svg">
<g clip-path="url(#clip0_408_206)">
<path d="M15.125 0H3.081C2.26387 0 1.4802 0.324605 0.902405 0.902405C0.324605 1.4802 0 2.26387 0 3.081V9.523C0.00105997 10.3394 0.326131 11.1221 0.903816 11.699C1.4815 12.2759 2.26456 12.6 3.081 12.6H15.125C15.9421 12.6 16.7258 12.2754 17.3036 11.6976C17.8814 11.1198 18.206 10.3361 18.206 9.519V3.081C18.206 2.26387 17.8814 1.4802 17.3036 0.902405C16.7258 0.324605 15.9421 0 15.125 0ZM12.669 6.425L7.207 9.225C7.18593 9.235 7.16269 9.23959 7.13939 9.23833C7.1161 9.23707 7.09349 9.23 7.07362 9.21778C7.05374 9.20556 7.03724 9.18857 7.02561 9.16835C7.01397 9.14813 7.00758 9.12532 7.007 9.102V3.5C7.00758 3.47668 7.01397 3.45388 7.02561 3.43365C7.03724 3.41343 7.05374 3.39644 7.07362 3.38422C7.09349 3.372 7.1161 3.36494 7.13939 3.36368C7.16269 3.36242 7.18593 3.36699 7.207 3.377L12.669 6.177C12.6919 6.18877 12.7111 6.20661 12.7245 6.22858C12.7379 6.25054 12.745 6.27577 12.745 6.3015C12.745 6.32723 12.7379 6.35246 12.7245 6.37443C12.7111 6.39639 12.6919 6.41424 12.669 6.426V6.425Z" fill="black"/>
</g>
<defs>
<clipPath id="clip0_408_206">
<rect width="18.206" height="12.604" fill="white"/>
</clipPath>
</defs>
</svg>
