<svg width="53" height="54" viewBox="0 0 53 54" fill="none" xmlns="http://www.w3.org/2000/svg">
<g id="icon-credit-card 1" clip-path="url(#clip0_404_162)">
<g id="Group 11690">
<path id="Ellipse 1039" d="M21.5786 48.9572C33.4961 48.9572 43.1571 39.2961 43.1571 27.3786C43.1571 15.4611 33.4961 5.80005 21.5786 5.80005C9.66106 5.80005 0 15.4611 0 27.3786C0 39.2961 9.66106 48.9572 21.5786 48.9572Z" fill="white" fill-opacity="0.1"/>
<g id="Group 11650">
<path id="Rectangle 4781" d="M12.2097 7.44835L7.62988 8.31445L14.2118 43.1182L18.7916 42.2521L12.2097 7.44835Z" fill="#FFD900"/>
<g id="Group 11649">
<g id="Group 11648">
<path id="Path 6953" d="M13.08 43.6746C12.5475 43.6735 12.032 43.487 11.6222 43.1471C11.2123 42.8072 10.9337 42.3351 10.8343 41.812L4.97475 10.7555C4.86307 10.1599 4.99223 9.54429 5.33389 9.04378C5.67555 8.54328 6.20181 8.19876 6.79719 8.08582L25.457 4.5651C25.752 4.50938 26.0551 4.51232 26.349 4.57376C26.6428 4.6352 26.9217 4.75392 27.1697 4.92316C27.4177 5.09239 27.6299 5.30882 27.7942 5.56009C27.9586 5.81135 28.0718 6.09252 28.1274 6.38755L28.3546 7.58989C28.3659 7.63954 28.3671 7.69097 28.3581 7.74109C28.3491 7.79122 28.33 7.83901 28.3021 7.88161C28.2742 7.9242 28.238 7.96073 28.1956 7.989C28.1532 8.01726 28.1056 8.03669 28.0556 8.04612C28.0055 8.05555 27.9541 8.05479 27.9043 8.04387C27.8546 8.03295 27.8076 8.01211 27.7661 7.98259C27.7246 7.95308 27.6894 7.91549 27.6628 7.87208C27.6362 7.82867 27.6186 7.78033 27.611 7.72996L27.3839 6.52762C27.3071 6.12994 27.0764 5.7787 26.7418 5.55038C26.4073 5.32207 25.9961 5.23517 25.5978 5.30862L6.93726 8.82857C6.53906 8.90406 6.18708 9.13443 5.95854 9.46915C5.73 9.80386 5.64359 10.2156 5.71826 10.6139L11.5785 41.6696C11.654 42.0679 11.8844 42.4199 12.2191 42.6486C12.5538 42.8772 12.9655 42.9638 13.3639 42.8894L20.2637 41.5871C20.3624 41.5684 20.4645 41.5897 20.5475 41.6463C20.6305 41.7029 20.6876 41.7901 20.7063 41.8888C20.725 41.9875 20.7037 42.0896 20.6471 42.1726C20.5905 42.2556 20.5033 42.3127 20.4046 42.3314L13.5047 43.6344C13.3647 43.6608 13.2225 43.6742 13.08 43.6746Z" fill="black"/>
<path id="Path 6954" d="M44.2463 29.0307C44.1581 29.721 43.8671 30.3697 43.4101 30.8948C42.9532 31.4198 42.3509 31.7975 41.6793 31.9802C41.0077 32.1629 40.297 32.1423 39.6371 31.9211C38.9772 31.6999 38.3977 31.288 37.9718 30.7375C37.546 30.1869 37.293 29.5225 37.2448 28.8282C37.1966 28.1338 37.3553 27.4408 37.701 26.8367C38.0466 26.2326 38.5636 25.7445 39.1867 25.4342C39.8097 25.124 40.5107 25.0054 41.2011 25.0935C41.6596 25.1519 42.1021 25.3001 42.5034 25.5296C42.9046 25.7592 43.2567 26.0655 43.5395 26.4311C43.8223 26.7967 44.0303 27.2145 44.1515 27.6606C44.2728 28.1066 44.305 28.5722 44.2463 29.0307Z" fill="#FFD900"/>
<path id="Path 6955" d="M32.3792 45.9657C32.3633 45.9668 32.3474 45.9668 32.3315 45.9657L21.8368 44.6256C21.7378 44.6122 21.648 44.5603 21.5872 44.4811C21.5263 44.4019 21.4992 44.3018 21.5118 44.2027C21.5244 44.1036 21.5756 44.0135 21.6544 43.952C21.7331 43.8905 21.833 43.8627 21.9322 43.8745L32.4262 45.2116C32.5266 45.2178 32.6204 45.2637 32.687 45.3391C32.7536 45.4145 32.7875 45.5132 32.7813 45.6136C32.775 45.714 32.7292 45.8079 32.6538 45.8745C32.5784 45.9411 32.4796 45.975 32.3792 45.9687" fill="black"/>
<path id="Path 6956" d="M38.562 18.8335L36.2065 18.5306C36.1176 18.5194 36.0317 18.4907 35.9539 18.4463C35.876 18.4018 35.8077 18.3425 35.7529 18.2716C35.698 18.2007 35.6577 18.1196 35.6342 18.0331C35.6107 17.9466 35.6045 17.8563 35.6159 17.7674L36.0407 14.4481C36.052 14.3593 36.0807 14.2736 36.1252 14.1959C36.1696 14.1182 36.2289 14.05 36.2997 13.9952C36.3705 13.9405 36.4514 13.9002 36.5378 13.8767C36.6242 13.8532 36.7143 13.8469 36.8031 13.8583L39.1594 14.1611C39.2482 14.1725 39.334 14.2012 39.4118 14.2457C39.4895 14.2902 39.5578 14.3496 39.6125 14.4204C39.6673 14.4913 39.7076 14.5723 39.731 14.6588C39.7545 14.7453 39.7607 14.8355 39.7492 14.9244L39.3252 18.2429C39.314 18.3318 39.2853 18.4177 39.2409 18.4955C39.1964 18.5734 39.137 18.6417 39.0661 18.6966C38.9952 18.7514 38.9142 18.7918 38.8277 18.8153C38.7412 18.8387 38.6509 18.8449 38.562 18.8335Z" fill="#FFD900"/>
<path id="Path 6957" d="M42.0215 49.5727C41.9202 49.5726 41.8191 49.5663 41.7186 49.5537L21.7301 47.0006C21.0985 46.9187 20.5252 46.5898 20.1357 46.086C19.7461 45.5822 19.5721 44.9446 19.6517 44.3128L20.1567 40.3605C20.163 40.3112 20.179 40.2636 20.2037 40.2204C20.2284 40.1773 20.2614 40.1394 20.3007 40.109C20.34 40.0786 20.385 40.0563 20.433 40.0432C20.4809 40.0302 20.531 40.0267 20.5803 40.033C20.6297 40.0393 20.6772 40.0553 20.7204 40.08C20.7635 40.1047 20.8014 40.1377 20.8318 40.177C20.8622 40.2164 20.8846 40.2613 20.8976 40.3093C20.9107 40.3573 20.9141 40.4073 20.9078 40.4567L20.4028 44.4089C20.3481 44.8416 20.4672 45.2783 20.7341 45.6232C21.0009 45.9681 21.3937 46.1931 21.8262 46.2488L41.8148 48.8019C42.2474 48.857 42.6842 48.7381 43.0292 48.4714C43.3742 48.2046 43.5991 47.8118 43.6546 47.3792L47.9045 14.1187C47.959 13.686 47.8398 13.2493 47.573 12.9043C47.3062 12.5593 46.9136 12.3341 46.4811 12.2781L26.4925 9.72498C26.0599 9.6707 25.6234 9.78999 25.2786 10.0568C24.9338 10.3235 24.7087 10.7161 24.6526 11.1484L21.3371 37.0995C21.3244 37.1992 21.2725 37.2897 21.193 37.3512C21.1135 37.4127 21.0128 37.4401 20.9131 37.4273C20.8134 37.4146 20.7229 37.3627 20.6614 37.2832C20.5999 37.2037 20.5725 37.103 20.5853 37.0033L23.9008 11.0523C23.9822 10.4206 24.3108 9.84705 24.8146 9.45741C25.3183 9.06777 25.9561 8.89388 26.5879 8.9739L46.5765 11.527C47.2081 11.6087 47.7815 11.9376 48.1711 12.4414C48.5607 12.9452 48.7346 13.583 48.6548 14.2148L44.4027 47.4746C44.3278 48.0536 44.0449 48.5857 43.6069 48.9717C43.1688 49.3577 42.6053 49.5712 42.0215 49.5727Z" fill="black"/>
<path id="Path 6958" d="M31.1669 4.79527C31.0756 4.79523 30.9874 4.76218 30.9185 4.70221C30.8496 4.64224 30.8047 4.55939 30.7921 4.46894L30.3621 1.38434C30.3481 1.28484 30.3743 1.18387 30.4347 1.10365C30.4952 1.02342 30.5851 0.970511 30.6846 0.956555C30.7841 0.942599 30.8851 0.96874 30.9653 1.02923C31.0455 1.08972 31.0984 1.1796 31.1124 1.2791L31.5425 4.36143C31.5493 4.4107 31.5463 4.46083 31.5338 4.50896C31.5212 4.55709 31.4993 4.60228 31.4693 4.64194C31.4393 4.6816 31.4017 4.71495 31.3588 4.74009C31.3159 4.76523 31.2684 4.78166 31.2192 4.78846C31.2018 4.78958 31.1843 4.78958 31.1669 4.78846" fill="black"/>
<path id="Path 6959" d="M38.1272 8.43642C38.0376 8.43678 37.9509 8.40539 37.8823 8.34782C37.8137 8.29024 37.7677 8.21021 37.7525 8.12195C37.7374 8.03369 37.754 7.94291 37.7994 7.86575C37.8449 7.78858 37.9162 7.73002 38.0007 7.70048L40.9362 6.6594C41.031 6.62587 41.1352 6.63136 41.2259 6.67467C41.3167 6.71798 41.3865 6.79555 41.42 6.89033C41.4535 6.98511 41.448 7.08933 41.4047 7.18007C41.3614 7.2708 41.2839 7.34061 41.1891 7.37415L38.2536 8.41522C38.213 8.4293 38.1702 8.43646 38.1272 8.43642Z" fill="black"/>
<path id="Path 6960" d="M35.0305 6.14977C34.9592 6.15021 34.8894 6.13024 34.8291 6.09223C34.7869 6.06582 34.7503 6.03134 34.7215 5.99078C34.6926 5.95021 34.672 5.90436 34.6609 5.85583C34.6498 5.8073 34.6484 5.75706 34.6567 5.70798C34.665 5.6589 34.683 5.61194 34.7095 5.5698L36.934 2.0241C36.9597 1.98064 36.9939 1.94278 37.0345 1.91273C37.0751 1.88269 37.1213 1.86108 37.1704 1.84917C37.2195 1.83726 37.2705 1.8353 37.3203 1.8434C37.3702 1.85149 37.4179 1.86949 37.4607 1.89632C37.5035 1.92315 37.5405 1.95828 37.5695 1.99963C37.5986 2.04098 37.619 2.08772 37.6297 2.13709C37.6403 2.18647 37.641 2.23748 37.6317 2.28712C37.6223 2.33676 37.6031 2.38403 37.5753 2.42614L35.3515 5.9726C35.3174 6.02691 35.27 6.07166 35.2139 6.10265C35.1577 6.13364 35.0946 6.14985 35.0305 6.14977Z" fill="black"/>
</g>
</g>
</g>
</g>
</g>
<defs>
<clipPath id="clip0_404_162">
<rect width="53" height="53" fill="white" transform="translate(0 0.5)"/>
</clipPath>
</defs>
</svg>
