<svg width="19" height="19" viewBox="0 0 19 19" fill="none" xmlns="http://www.w3.org/2000/svg">
<g clip-path="url(#clip0_408_192)">
<path d="M14.4175 3.36719C14.2723 3.36719 14.1285 3.39582 13.9944 3.45142C13.8603 3.50701 13.7386 3.58845 13.636 3.69116C13.5334 3.79388 13.452 3.91581 13.3965 4.04999C13.341 4.18417 13.3124 4.32801 13.3125 4.47321C13.3125 4.76636 13.429 5.0475 13.6362 5.25488C13.8434 5.46227 14.1243 5.5789 14.4175 5.57916C14.7106 5.5789 14.9918 5.46227 15.199 5.25488C15.4062 5.0475 15.5225 4.76636 15.5225 4.47321C15.5226 4.32801 15.4942 4.18417 15.4387 4.04999C15.3832 3.91581 15.3018 3.79388 15.1992 3.69116C15.0966 3.58845 14.9747 3.50701 14.8406 3.45142C14.7064 3.39582 14.5627 3.36719 14.4175 3.36719Z" fill="#010202"/>
<path d="M9.5083 4.78516C8.27695 4.78648 7.09638 5.27619 6.22559 6.14679C5.35479 7.01739 4.86487 8.19779 4.86328 9.42914C4.8646 10.6607 5.35452 11.8414 6.22534 12.7122C7.09616 13.583 8.27678 14.0728 9.5083 14.0742C10.7398 14.0728 11.9207 13.583 12.7915 12.7122C13.6623 11.8414 14.152 10.6607 14.1533 9.42914C14.1517 8.19779 13.6618 7.01739 12.791 6.14679C11.9202 5.27619 10.7397 4.78648 9.5083 4.78516ZM9.5083 12.4052C8.71953 12.4044 7.96327 12.0907 7.40552 11.533C6.84777 10.9752 6.53424 10.219 6.53345 9.43018C6.53424 8.6414 6.84777 7.88514 7.40552 7.32739C7.96327 6.76964 8.71953 6.45593 9.5083 6.45514C10.2971 6.45593 11.0533 6.76964 11.6111 7.32739C12.1688 7.88514 12.4826 8.6414 12.4834 9.43018C12.4826 10.219 12.1688 10.9752 11.6111 11.533C11.0533 12.0907 10.2971 12.4044 9.5083 12.4052Z" fill="#010202"/>
<path d="M13.1951 18.86H5.66504C4.16307 18.8584 2.72294 18.2611 1.66089 17.199C0.598839 16.137 0.00158826 14.697 0 13.195V5.66504C0.00158826 4.16307 0.598839 2.72306 1.66089 1.66101C2.72294 0.598961 4.16307 0.00158826 5.66504 0H13.1951C14.697 0.00158826 16.1369 0.598961 17.199 1.66101C18.261 2.72306 18.8585 4.16307 18.8601 5.66504V13.195C18.8583 14.6969 18.2607 16.1367 17.1987 17.1987C16.1367 18.2607 14.697 18.8581 13.1951 18.86ZM5.66504 1.77399C4.63381 1.77636 3.64545 2.18707 2.91626 2.91626C2.18707 3.64545 1.7763 4.63381 1.77393 5.66504V13.195C1.7763 14.2262 2.18707 15.2145 2.91626 15.9437C3.64545 16.6729 4.63381 17.0836 5.66504 17.086H13.1951C14.2263 17.0836 15.2147 16.6729 15.9438 15.9437C16.673 15.2145 17.0836 14.2262 17.0859 13.195V5.66504C17.0836 4.63381 16.673 3.64545 15.9438 2.91626C15.2147 2.18707 14.2263 1.77636 13.1951 1.77399H5.66504Z" fill="#010202"/>
</g>
<defs>
<clipPath id="clip0_408_192">
<rect width="18.86" height="18.86" fill="white"/>
</clipPath>
</defs>
</svg>
