<svg width="15" height="20" viewBox="0 0 15 20" fill="none" xmlns="http://www.w3.org/2000/svg">
<g clip-path="url(#clip0_408_190)">
<path d="M23.2052 7.37402C23.2052 11.644 21.509 15.7391 18.4896 18.7584C15.4703 21.7778 11.3751 23.474 7.10512 23.474C2.83514 23.474 -1.26006 21.7778 -4.2794 18.7584C-7.29873 15.7391 -8.99497 11.644 -8.99497 7.37402C-8.99806 4.95616 -10.0273 9.55191 -8.97709 7.37402C-10.0181 9.548 -8.98259 4.94565 -8.97691 7.35602C-8.97829 11.1138 -7.66285 14.7534 -5.25938 17.6421C-2.8559 20.5308 0.48367 22.486 4.1791 23.168C4.3521 23.204 4.52417 23.241 4.70717 23.268C4.74317 23.277 4.78909 23.277 4.82509 23.286V13.093H1.12514V8.883H4.82509V5.67303C4.82509 2.01803 7.0071 -0.000976562 10.3351 -0.000976562C11.4285 0.0143937 12.5192 0.108621 13.599 0.281006V3.87305H11.754C11.4411 3.83067 11.1227 3.85936 10.8224 3.95709C10.5221 4.05482 10.2477 4.21906 10.0197 4.4375C9.79162 4.65594 9.61583 4.923 9.50527 5.21881C9.39471 5.51462 9.35237 5.83152 9.38124 6.146V8.883H13.4271L12.7811 13.093H9.38124V23.286C9.41724 23.277 9.4441 23.277 9.4811 23.268C9.6631 23.241 9.84524 23.204 10.0272 23.168C13.7245 22.4881 17.0664 20.5337 19.4718 17.6448C21.8773 14.7559 23.194 11.1153 23.193 7.35602C23.1985 4.94567 24.5409 8.67406 23.5001 6.5C24.548 8.67845 23.0129 9.76002 23.2052 7.37402Z" fill="#010202"/>
</g>
<defs>
<clipPath id="clip0_408_190">
<rect width="15" height="20" fill="white"/>
</clipPath>
</defs>
</svg>
