<svg width="70" height="70" viewBox="0 0 70 70" fill="none" xmlns="http://www.w3.org/2000/svg">
<path d="M32.5 64C48.2401 64 61 51.2401 61 35.5C61 19.7599 48.2401 7 32.5 7C16.7599 7 4 19.7599 4 35.5C4 51.2401 16.7599 64 32.5 64Z" fill="white"/>
<path d="M27.5 19.0001C27.5 20.9516 26.9213 22.8592 25.8371 24.4819C24.7529 26.1045 23.2119 27.3692 21.4089 28.116C19.606 28.8628 17.6221 29.0582 15.708 28.6775C13.794 28.2967 12.0359 27.357 10.656 25.9771C9.27605 24.5972 8.33631 22.839 7.95559 20.925C7.57487 19.011 7.77027 17.0271 8.51708 15.2241C9.26389 13.4212 10.5286 11.8801 12.1512 10.7959C13.7738 9.71175 15.6815 9.13306 17.633 9.13306C20.2498 9.13332 22.7594 10.173 24.6097 12.0233C26.4601 13.8737 27.4997 16.3832 27.5 19.0001Z" fill="#FFD900"/>
<path d="M17.452 19.0251C16.9811 19.0251 16.5208 18.8854 16.1292 18.6238C15.7377 18.3622 15.4325 17.9903 15.2523 17.5552C15.0721 17.1202 15.0249 16.6414 15.1168 16.1796C15.2087 15.7177 15.4354 15.2934 15.7684 14.9604C16.1014 14.6275 16.5257 14.4007 16.9875 14.3088C17.4494 14.2169 17.9281 14.2641 18.3632 14.4443C18.7983 14.6245 19.1701 14.9297 19.4318 15.3212C19.6934 15.7128 19.833 16.1731 19.833 16.6441" stroke="black" stroke-linecap="round" stroke-linejoin="round"/>
<path d="M17.452 19.0251C17.923 19.0251 18.3833 19.1647 18.7749 19.4264C19.1664 19.688 19.4716 20.0598 19.6518 20.4949C19.832 20.93 19.8792 21.4087 19.7873 21.8706C19.6954 22.3325 19.4687 22.7567 19.1357 23.0897C18.8027 23.4227 18.3784 23.6495 17.9166 23.7413C17.4547 23.8332 16.9759 23.7861 16.5409 23.6058C16.1058 23.4256 15.7339 23.1205 15.4723 22.7289C15.2107 22.3373 15.071 21.877 15.071 21.4061" stroke="black" stroke-linecap="round" stroke-linejoin="round"/>
<path d="M17.452 14.263V12.157" stroke="black" stroke-linecap="round" stroke-linejoin="round"/>
<path d="M17.452 25.893V23.787" stroke="black" stroke-linecap="round" stroke-linejoin="round"/>
<path d="M16.6001 36.035C17.118 30.8659 19.4001 26.0329 23.0627 22.3486C26.7252 18.6644 31.5447 16.3538 36.7107 15.8054C41.8766 15.257 47.0739 16.5043 51.4283 19.3374C55.7827 22.1706 59.0286 26.4169 60.6202 31.362C62.2118 36.3072 62.0519 41.6496 60.1674 46.4908C58.283 51.3319 54.7889 55.3764 50.2729 57.9441C45.7568 60.5119 40.4943 61.4461 35.3704 60.5898C30.2465 59.7334 25.5738 57.1387 22.1381 53.242" fill="white"/>
<path d="M39.1 38.29C37.8195 38.29 36.5679 37.9103 35.5032 37.199C34.4386 36.4876 33.6088 35.4765 33.1188 34.2935C32.6288 33.1106 32.5006 31.8089 32.7504 30.553C33.0002 29.2972 33.6168 28.1436 34.5222 27.2382C35.4276 26.3328 36.5811 25.7162 37.837 25.4664C39.0928 25.2166 40.3945 25.3448 41.5775 25.8348C42.7604 26.3248 43.7715 27.1546 44.4829 28.2193C45.1943 29.2839 45.574 30.5356 45.574 31.816" stroke="black" stroke-linecap="round" stroke-linejoin="round"/>
<path d="M39.1 38.29C40.3804 38.29 41.6321 38.6697 42.6967 39.3811C43.7614 40.0925 44.5912 41.1036 45.0812 42.2865C45.5712 43.4695 45.6994 44.7712 45.4496 46.0271C45.1998 47.2829 44.5832 48.4364 43.6778 49.3418C42.7724 50.2473 41.6188 50.8638 40.363 51.1136C39.1072 51.3634 37.8055 51.2352 36.6225 50.7452C35.4395 50.2552 34.4284 49.4254 33.717 48.3608C33.0057 47.2962 32.626 46.0445 32.626 44.764" stroke="black" stroke-linecap="round" stroke-linejoin="round"/>
<path d="M39.098 25.3421V19.6171" stroke="black" stroke-linecap="round" stroke-linejoin="round"/>
<path d="M39.098 56.963V51.238" stroke="black" stroke-linecap="round" stroke-linejoin="round"/>
<path d="M16.6001 36.035C17.118 30.8659 19.4001 26.0329 23.0627 22.3486C26.7252 18.6644 31.5447 16.3538 36.7107 15.8054C41.8766 15.257 47.0739 16.5043 51.4283 19.3374C55.7827 22.1706 59.0286 26.4169 60.6202 31.362C62.2118 36.3072 62.0519 41.6496 60.1674 46.4908C58.283 51.3319 54.7889 55.3764 50.2729 57.9441C45.7568 60.5119 40.4943 61.4461 35.3704 60.5898C30.2465 59.7334 25.5738 57.1387 22.1381 53.242" stroke="black" stroke-linecap="round" stroke-linejoin="round"/>
<path d="M21.115 45.3441L17.6 45.5541L17.39 42.0391C17.3638 41.6001 17.1642 41.1896 16.8353 40.8978C16.5063 40.606 16.075 40.4568 15.636 40.4831L13.565 40.6071C13.1261 40.6333 12.7156 40.8329 12.4238 41.1618C12.132 41.4908 11.9828 41.9221 12.009 42.3611L12.219 45.8761L8.70404 46.0861C8.48661 46.0991 8.27388 46.1548 8.07799 46.25C7.88211 46.3453 7.70691 46.4782 7.56241 46.6412C7.41791 46.8041 7.30694 46.994 7.23584 47.1999C7.16474 47.4058 7.1349 47.6236 7.14804 47.8411L7.27104 49.9111C7.2973 50.3503 7.49696 50.761 7.82608 51.053C8.15521 51.345 8.58684 51.4943 9.02604 51.4681L12.541 51.2571L12.751 54.7721C12.7773 55.211 12.9769 55.6215 13.3058 55.9133C13.6347 56.2051 14.0661 56.3543 14.505 56.3281L16.576 56.2041C16.7934 56.1912 17.0061 56.1356 17.202 56.0404C17.3979 55.9453 17.5731 55.8125 17.7176 55.6496C17.8621 55.4867 17.9731 55.2969 18.0442 55.0911C18.1153 54.8852 18.1452 54.6674 18.132 54.4501L17.922 50.9351L21.437 50.7251C21.876 50.6988 22.2865 50.4992 22.5783 50.1703C22.8701 49.8414 23.0193 49.41 22.993 48.9711L22.869 46.9001C22.8428 46.4611 22.6432 46.0506 22.3143 45.7588C21.9853 45.467 21.554 45.3178 21.115 45.3441Z" fill="#FFD900"/>
</svg>
