<svg width="18" height="15" viewBox="0 0 18 15" fill="none" xmlns="http://www.w3.org/2000/svg">
<g clip-path="url(#clip0_408_198)">
<path d="M17.4708 1.7312C16.9035 1.97497 16.3074 2.14501 15.6969 2.23718C15.9819 2.18918 16.3969 1.67323 16.5689 1.46423C16.8317 1.14688 17.0315 0.78235 17.1578 0.390195C17.1738 0.359195 17.1848 0.321215 17.1578 0.298215C17.1427 0.291711 17.1263 0.289007 17.11 0.290402C17.0936 0.291798 17.0776 0.297245 17.0638 0.30621C16.3997 0.658993 15.6944 0.927714 14.964 1.1062C14.9386 1.11402 14.9115 1.1145 14.8858 1.1076C14.8602 1.1007 14.837 1.0867 14.8189 1.0672C14.7625 0.999904 14.7009 0.937063 14.6349 0.879208C14.3309 0.617787 13.9868 0.407059 13.6158 0.255185C13.1205 0.054433 12.5862 -0.0317293 12.0528 0.00317072C11.5347 0.0382586 11.0298 0.180967 10.5699 0.422177C10.1075 0.662615 9.69916 0.995146 9.36996 1.39923C9.0295 1.81798 8.7853 2.30651 8.65487 2.8302C8.54328 3.3265 8.53028 3.8399 8.61679 4.34118C8.62779 4.42518 8.61677 4.44123 8.54477 4.42523C5.7614 4.14164 3.18395 2.82974 1.31674 0.746213C1.23274 0.646213 1.18679 0.646171 1.11679 0.753171C0.741354 1.4463 0.599414 2.24202 0.712002 3.02221C0.82459 3.8024 1.18571 4.52553 1.74179 5.08423C1.88379 5.21823 2.02888 5.35222 2.18588 5.47522C1.69956 5.43863 1.22535 5.30573 0.79086 5.08423C0.70686 5.03123 0.664826 5.06122 0.656826 5.15722C0.651442 5.29564 0.659092 5.43426 0.679776 5.57122C0.764889 6.22184 1.02118 6.8382 1.42245 7.35736C1.82373 7.87652 2.35579 8.27984 2.96396 8.52618C3.11252 8.59061 3.26771 8.63827 3.42685 8.66821C2.97636 8.75825 2.51409 8.77244 2.05893 8.7102C1.95893 8.6912 1.92183 8.74118 1.95883 8.83618C2.19284 9.44918 2.57981 9.99215 3.08285 10.4134C3.58589 10.8347 4.18829 11.1204 4.83285 11.2432C4.96285 11.2662 5.09297 11.2662 5.22397 11.2962C5.21597 11.3082 5.20777 11.3082 5.20077 11.3192C4.64232 11.8226 3.96803 12.1799 3.23788 12.3592C2.28336 12.6999 1.26651 12.8302 0.256924 12.7412C0.096924 12.7172 0.0628634 12.7192 0.0198634 12.7412C-0.0231366 12.7632 0.0137618 12.8062 0.0657618 12.8482C0.265762 12.9822 0.475856 13.1012 0.686856 13.2162C1.32005 13.5547 1.98828 13.8229 2.67978 14.0162C4.45736 14.5503 6.34413 14.6089 8.15145 14.1862C9.95878 13.7635 11.6235 12.8743 12.9798 11.6072C13.9567 10.5486 14.7122 9.30562 15.202 7.95105C15.6918 6.59648 15.9059 5.15766 15.8319 3.71917C15.8319 3.60617 15.9658 3.54321 16.0448 3.48321C16.58 3.06802 17.0518 2.57682 17.4449 2.0252C17.5069 1.94558 17.5398 1.84711 17.5379 1.74621V1.7312C17.5389 1.6852 17.5388 1.6962 17.4708 1.7312Z" fill="#010202"/>
</g>
<defs>
<clipPath id="clip0_408_198">
<rect width="17.543" height="14.439" fill="white"/>
</clipPath>
</defs>
</svg>
