<svg width="71" height="70" viewBox="0 0 71 70" fill="none" xmlns="http://www.w3.org/2000/svg">
<path d="M34 67C49.7401 67 62.5 54.2401 62.5 38.5C62.5 22.7599 49.7401 10 34 10C18.2599 10 5.5 22.7599 5.5 38.5C5.5 54.2401 18.2599 67 34 67Z" fill="white"/>
<path d="M18.6323 54.7099L18.5603 59.4799C18.5536 59.9139 18.6984 60.3367 18.9698 60.6755C19.2412 61.0142 19.6222 61.2478 20.0473 61.3359L22.0273 61.7479C22.4345 61.8325 22.8584 61.7787 23.2316 61.595C23.6048 61.4113 23.9059 61.1082 24.0873 60.7339L25.4553 57.9079" stroke="black" stroke-linecap="round" stroke-linejoin="round"/>
<path d="M43.9553 59.9709L42.1213 64.3709C41.9546 64.7711 41.654 65.1008 41.2708 65.3035C40.8876 65.5062 40.4459 65.5693 40.0213 65.4819L38.0413 65.0699C37.6339 64.9853 37.2664 64.7671 36.9972 64.4499C36.728 64.1327 36.5724 63.7346 36.5553 63.3189L36.4263 60.1829" stroke="black" stroke-linecap="round" stroke-linejoin="round"/>
<path d="M43.0633 28.5519L32.7823 26.4159" stroke="black" stroke-linecap="round" stroke-linejoin="round"/>
<path d="M20.3173 55.8519C18.0035 54.4703 16.0302 52.5858 14.5436 50.338C13.0569 48.0903 12.0951 45.5368 11.7293 42.8669L10.0713 42.5219C9.63582 42.4313 9.2225 42.2558 8.8549 42.0054C8.4873 41.755 8.17263 41.4347 7.92887 41.0627C7.6851 40.6907 7.51701 40.2743 7.4342 39.8373C7.3514 39.4003 7.35549 38.9513 7.44626 38.5159L8.50026 33.4619C8.68332 32.5837 9.20729 31.814 9.95719 31.3217C10.7071 30.8293 11.6217 30.6546 12.5003 30.8359L14.1583 31.1809C16.5609 27.2261 20.3953 24.3494 24.8643 23.1489L24.1603 17.9999C24.1393 17.774 24.1701 17.5464 24.2504 17.3343C24.3307 17.1222 24.4584 16.9312 24.6237 16.7759C24.789 16.6206 24.9876 16.5052 25.2043 16.4382C25.4211 16.3713 25.6502 16.3548 25.8743 16.3899C26.9364 16.4931 27.9609 16.8377 28.8695 17.3976C29.778 17.9574 30.5465 18.7175 31.1163 19.6199C31.7943 20.603 32.3096 21.6889 32.6423 22.8359C32.7943 22.8639 32.9423 22.8919 33.0963 22.9229L43.0723 24.9999C47.6232 25.9172 51.6467 28.5504 54.309 32.3537C56.9713 36.157 58.0681 40.8388 57.3723 45.4289C56.8711 48.5458 55.5541 51.4746 53.5551 53.9179C51.5561 56.3613 48.9461 58.2323 45.9903 59.3409" stroke="black" stroke-linecap="round" stroke-linejoin="round"/>
<path d="M38.7893 60.4629C37.8679 60.4147 36.9516 60.2964 36.0483 60.1089L27.4363 58.3189L25.8123 57.9819" stroke="black" stroke-linecap="round" stroke-linejoin="round"/>
<path d="M20.0143 35.3739C19.8275 35.3349 19.6638 35.2234 19.5592 35.0639C19.4546 34.9043 19.4175 34.7097 19.4563 34.5229L20.1853 31.0149C20.2241 30.8282 20.3356 30.6646 20.4951 30.56C20.6546 30.4555 20.8491 30.4186 21.0358 30.4574C21.2225 30.4963 21.3861 30.6077 21.4907 30.7672C21.5952 30.9267 21.6321 31.1212 21.5933 31.3079L20.8653 34.8159C20.8263 35.0027 20.7148 35.1664 20.5552 35.271C20.3957 35.3756 20.2011 35.4126 20.0143 35.3739Z" fill="black"/>
<path d="M58.9943 43.3999C61.1753 43.0999 62.8483 41.2799 62.2533 39.0329C61.7333 37.0689 59.2043 37.6929 59.7133 39.9329C60.3883 42.9039 64.8563 43.7399 65.8733 39.5189" stroke="black" stroke-linecap="round" stroke-linejoin="round"/>
<path d="M33.1722 15.1369C33.1722 16.2229 33.4943 17.2845 34.0976 18.1875C34.701 19.0905 35.5586 19.7943 36.5619 20.2099C37.5653 20.6255 38.6693 20.7342 39.7345 20.5224C40.7996 20.3105 41.778 19.7875 42.546 19.0196C43.3139 18.2517 43.8369 17.2733 44.0487 16.2081C44.2606 15.143 44.1519 14.0389 43.7363 13.0356C43.3207 12.0322 42.6169 11.1746 41.7139 10.5713C40.8109 9.96792 39.7493 9.64587 38.6632 9.64587C37.2069 9.64587 35.8103 10.2244 34.7805 11.2542C33.7508 12.2839 33.1722 13.6806 33.1722 15.1369Z" fill="#FFD900"/>
<path d="M38.6633 12.1409C37.8676 12.1409 37.1046 12.4569 36.542 13.0195C35.9793 13.5822 35.6633 14.3452 35.6633 15.1409" stroke="black" stroke-linecap="round" stroke-linejoin="round"/>
<path d="M38.6633 18.1329C39.4589 18.1329 40.222 17.8168 40.7846 17.2542C41.3472 16.6916 41.6633 15.9285 41.6633 15.1329" stroke="black" stroke-linecap="round" stroke-linejoin="round"/>
<path d="M35.9142 9.08987V7.13287" stroke="black" stroke-linecap="round" stroke-linejoin="round"/>
<path d="M42.2133 10.9249V7.25592" stroke="black" stroke-linecap="round" stroke-linejoin="round"/>
<path d="M39.0502 8.02789V4.44189" stroke="black" stroke-linecap="round" stroke-linejoin="round"/>
</svg>
