<svg width="18" height="21" viewBox="0 0 18 21" fill="none" xmlns="http://www.w3.org/2000/svg">
<g clip-path="url(#clip0_408_200)">
<path d="M17.2261 8.146C17.0621 8.162 16.8969 8.16996 16.7319 8.17096C15.8391 8.17147 14.9602 7.94958 14.1746 7.52533C13.3889 7.10108 12.7212 6.48784 12.2319 5.74097V14.0179C12.2319 15.6403 11.5876 17.1962 10.4404 18.3433C9.29327 19.4905 7.73732 20.1349 6.11499 20.1349C5.31169 20.1349 4.51632 19.9767 3.77417 19.6693C3.03202 19.3619 2.35757 18.9113 1.78955 18.3433C1.22153 17.7753 0.771031 17.101 0.463623 16.3588C0.156215 15.6167 -0.00195313 14.8212 -0.00195312 14.0179C-0.00195313 13.2146 0.156215 12.4193 0.463623 11.6771C0.771031 10.935 1.22153 10.2606 1.78955 9.69263C2.35757 9.12461 3.03202 8.67399 3.77417 8.36658C4.51632 8.05917 5.31169 7.90094 6.11499 7.90094C6.24299 7.90094 6.36692 7.91198 6.49292 7.91998V10.935C6.36781 10.9147 6.24164 10.902 6.11499 10.897C5.28698 10.897 4.49296 11.2259 3.90747 11.8114C3.32198 12.3969 2.99292 13.191 2.99292 14.019C2.99292 14.847 3.32198 15.6411 3.90747 16.2266C4.49296 16.8121 5.28698 17.141 6.11499 17.141C6.95206 17.1541 7.76097 16.8386 8.36816 16.2623C8.97536 15.6859 9.33253 14.8946 9.36304 14.058L9.39307 0.000976562H12.281C12.4119 1.25483 12.9796 2.42272 13.8848 3.30023C14.7899 4.17775 15.9746 4.70898 17.2319 4.80096V8.15094" fill="#010202"/>
</g>
<defs>
<clipPath id="clip0_408_200">
<rect width="17.23" height="20.135" fill="white"/>
</clipPath>
</defs>
</svg>
