<svg width="202" height="63" viewBox="0 0 202 63" fill="none" xmlns="http://www.w3.org/2000/svg">
<path d="M190.62 0H11.3803C5.09513 0 0 5.09513 0 11.3803V51.2112C0 57.4964 5.09513 62.5915 11.3803 62.5915H190.62C196.905 62.5915 202 57.4964 202 51.2112V11.3803C202 5.09513 196.905 0 190.62 0Z" fill="black"/>
<path d="M68.8293 24.5786C68.7455 24.5786 68.6742 24.5534 68.6155 24.5031C68.5652 24.4444 68.54 24.3731 68.54 24.2893V16.0756C68.54 15.9834 68.5652 15.9121 68.6155 15.8618C68.6742 15.8031 68.7455 15.7738 68.8293 15.7738H71.6846C72.9508 15.7738 73.8648 16.0589 74.4267 16.6291C74.9885 17.1909 75.282 18.0421 75.3072 19.1825C75.3155 19.4257 75.3197 19.7527 75.3197 20.1636C75.3197 20.5745 75.3155 20.9057 75.3072 21.1573C75.282 21.9539 75.1478 22.6038 74.9047 23.1069C74.6699 23.6017 74.2967 23.9706 73.7852 24.2138C73.2737 24.457 72.5944 24.5786 71.7475 24.5786H68.8293ZM71.6846 23.5094C72.2632 23.5094 72.7202 23.4298 73.0556 23.2704C73.3994 23.1111 73.6468 22.8596 73.7978 22.5157C73.9571 22.1636 74.0451 21.694 74.0619 21.107C74.0787 20.6038 74.0871 20.2894 74.0871 20.1636C74.0871 20.0294 74.0787 19.7192 74.0619 19.2328C74.0451 18.4026 73.8481 17.7989 73.4707 17.4215C73.0934 17.0358 72.477 16.8429 71.6217 16.8429H69.7727V23.5094H71.6846ZM79.7278 24.7044C78.8054 24.7044 78.0885 24.4444 77.577 23.9245C77.0738 23.4046 76.8055 22.7128 76.7719 21.8491L76.7594 21.3082L76.7719 20.7674C76.8055 19.912 77.078 19.2244 77.5895 18.7045C78.1011 18.1762 78.8138 17.9121 79.7278 17.9121C80.6419 17.9121 81.3546 18.1762 81.8662 18.7045C82.3777 19.2244 82.6502 19.912 82.6838 20.7674C82.6921 20.8596 82.6963 21.0399 82.6963 21.3082C82.6963 21.5766 82.6921 21.7569 82.6838 21.8491C82.6502 22.7128 82.3777 23.4046 81.8662 23.9245C81.363 24.4444 80.6503 24.7044 79.7278 24.7044ZM79.7278 23.7358C80.2561 23.7358 80.6712 23.5681 80.9731 23.2327C81.2834 22.8973 81.4511 22.4151 81.4762 21.7862C81.4846 21.7023 81.4888 21.543 81.4888 21.3082C81.4888 21.0734 81.4846 20.9141 81.4762 20.8303C81.4511 20.2013 81.2834 19.7192 80.9731 19.3837C80.6712 19.0483 80.2561 18.8806 79.7278 18.8806C79.1996 18.8806 78.7803 19.0483 78.47 19.3837C78.1598 19.7192 77.9962 20.2013 77.9795 20.8303L77.9669 21.3082L77.9795 21.7862C77.9962 22.4151 78.1598 22.8973 78.47 23.2327C78.7803 23.5681 79.1996 23.7358 79.7278 23.7358ZM85.8352 24.5786C85.7262 24.5786 85.6423 24.5534 85.5836 24.5031C85.5249 24.4528 85.4746 24.3731 85.4327 24.2641L83.6466 18.4278L83.6214 18.302C83.6214 18.2265 83.6466 18.1637 83.6969 18.1133C83.7556 18.063 83.8185 18.0379 83.8856 18.0379H84.439C84.5229 18.0379 84.59 18.063 84.6403 18.1133C84.699 18.1553 84.7367 18.2014 84.7535 18.2517L86.1497 22.9937L87.6465 18.302C87.6633 18.2349 87.701 18.1762 87.7597 18.1259C87.8184 18.0672 87.8981 18.0379 87.9987 18.0379H88.4263C88.527 18.0379 88.6066 18.0672 88.6653 18.1259C88.724 18.1762 88.7618 18.2349 88.7785 18.302L90.2754 22.9937L91.6715 18.2517C91.6799 18.2098 91.7093 18.1637 91.7596 18.1133C91.8183 18.063 91.8896 18.0379 91.9734 18.0379H92.5395C92.6065 18.0379 92.6652 18.063 92.7155 18.1133C92.7659 18.1637 92.791 18.2265 92.791 18.302L92.7659 18.4278L90.9923 24.2641C90.9504 24.3731 90.9001 24.4528 90.8414 24.5031C90.7827 24.5534 90.6946 24.5786 90.5772 24.5786H90.0867C89.8603 24.5786 89.7219 24.4738 89.6716 24.2641L88.2125 19.7611L86.7534 24.2641C86.6863 24.4738 86.5438 24.5786 86.3258 24.5786H85.8352ZM94.4735 24.5786C94.3896 24.5786 94.3183 24.5534 94.2596 24.5031C94.2093 24.4444 94.1842 24.3731 94.1842 24.2893V18.3272C94.1842 18.2433 94.2093 18.1762 94.2596 18.1259C94.3183 18.0672 94.3896 18.0379 94.4735 18.0379H95.0646C95.1485 18.0379 95.2156 18.0672 95.2659 18.1259C95.3246 18.1762 95.3539 18.2433 95.3539 18.3272V18.8806C95.5971 18.5703 95.8822 18.3314 96.2093 18.1636C96.5447 17.9959 96.9598 17.9121 97.4545 17.9121C98.2595 17.9121 98.8843 18.172 99.3287 18.6919C99.7815 19.2035 100.008 19.8869 100.008 20.7422V24.2893C100.008 24.3731 99.9786 24.4444 99.9199 24.5031C99.8696 24.5534 99.8025 24.5786 99.7186 24.5786H99.0897C99.0059 24.5786 98.9346 24.5534 98.8759 24.5031C98.8256 24.4444 98.8004 24.3731 98.8004 24.2893V20.8051C98.8004 20.2097 98.6537 19.7485 98.3602 19.4215C98.0751 19.0944 97.66 18.9309 97.1149 18.9309C96.5866 18.9309 96.1673 19.0986 95.8571 19.4341C95.5468 19.7611 95.3917 20.2181 95.3917 20.8051V24.2893C95.3917 24.3731 95.3623 24.4444 95.3036 24.5031C95.2533 24.5534 95.1862 24.5786 95.1024 24.5786H94.4735ZM102.114 24.5786C102.03 24.5786 101.959 24.5534 101.9 24.5031C101.85 24.4444 101.824 24.3731 101.824 24.2893V15.9373C101.824 15.8534 101.85 15.7863 101.9 15.736C101.959 15.6773 102.03 15.648 102.114 15.648H102.705C102.789 15.648 102.856 15.6773 102.906 15.736C102.965 15.7863 102.994 15.8534 102.994 15.9373V24.2893C102.994 24.3731 102.965 24.4444 102.906 24.5031C102.856 24.5534 102.789 24.5786 102.705 24.5786H102.114ZM107.55 24.7044C106.627 24.7044 105.91 24.4444 105.399 23.9245C104.896 23.4046 104.627 22.7128 104.594 21.8491L104.581 21.3082L104.594 20.7674C104.627 19.912 104.9 19.2244 105.411 18.7045C105.923 18.1762 106.636 17.9121 107.55 17.9121C108.464 17.9121 109.176 18.1762 109.688 18.7045C110.199 19.2244 110.472 19.912 110.506 20.7674C110.514 20.8596 110.518 21.0399 110.518 21.3082C110.518 21.5766 110.514 21.7569 110.506 21.8491C110.472 22.7128 110.199 23.4046 109.688 23.9245C109.185 24.4444 108.472 24.7044 107.55 24.7044ZM107.55 23.7358C108.078 23.7358 108.493 23.5681 108.795 23.2327C109.105 22.8973 109.273 22.4151 109.298 21.7862C109.306 21.7023 109.311 21.543 109.311 21.3082C109.311 21.0734 109.306 20.9141 109.298 20.8303C109.273 20.2013 109.105 19.7192 108.795 19.3837C108.493 19.0483 108.078 18.8806 107.55 18.8806C107.021 18.8806 106.602 19.0483 106.292 19.3837C105.982 19.7192 105.818 20.2013 105.801 20.8303L105.789 21.3082L105.801 21.7862C105.818 22.4151 105.982 22.8973 106.292 23.2327C106.602 23.5681 107.021 23.7358 107.55 23.7358ZM113.917 24.7044C113.506 24.7044 113.125 24.6205 112.772 24.4528C112.42 24.2851 112.139 24.0587 111.93 23.7736C111.728 23.4801 111.628 23.1572 111.628 22.805C111.628 22.2516 111.854 21.7988 112.307 21.4466C112.768 21.086 113.389 20.8512 114.169 20.7422L116.043 20.4781V20.1133C116.043 19.258 115.552 18.8303 114.571 18.8303C114.202 18.8303 113.9 18.91 113.665 19.0693C113.431 19.2202 113.255 19.4005 113.137 19.6102C113.112 19.6856 113.078 19.7401 113.036 19.7737C113.003 19.8072 112.953 19.824 112.886 19.824H112.345C112.269 19.824 112.202 19.7988 112.143 19.7485C112.093 19.6898 112.068 19.6227 112.068 19.5473C112.076 19.346 112.169 19.1196 112.345 18.868C112.529 18.6081 112.81 18.3859 113.187 18.2014C113.565 18.0085 114.03 17.9121 114.584 17.9121C115.523 17.9121 116.198 18.1343 116.609 18.5787C117.02 19.0148 117.225 19.5598 117.225 20.2139V24.2893C117.225 24.3731 117.196 24.4444 117.137 24.5031C117.087 24.5534 117.02 24.5786 116.936 24.5786H116.357C116.273 24.5786 116.202 24.5534 116.143 24.5031C116.093 24.4444 116.068 24.3731 116.068 24.2893V23.7484C115.883 24.0168 115.615 24.2432 115.263 24.4277C114.911 24.6121 114.462 24.7044 113.917 24.7044ZM114.181 23.761C114.726 23.761 115.171 23.5849 115.514 23.2327C115.867 22.8721 116.043 22.3564 116.043 21.6856V21.3334L114.584 21.5472C113.988 21.6311 113.54 21.7736 113.238 21.9749C112.936 22.1677 112.785 22.4151 112.785 22.717C112.785 23.0524 112.923 23.3124 113.2 23.4969C113.477 23.673 113.804 23.761 114.181 23.761ZM121.423 24.7044C120.551 24.7044 119.893 24.4193 119.448 23.849C119.004 23.2788 118.769 22.5577 118.744 21.6856L118.731 21.3082L118.744 20.9309C118.769 20.0672 119.004 19.3502 119.448 18.78C119.893 18.2014 120.551 17.9121 121.423 17.9121C122.287 17.9121 122.966 18.2182 123.461 18.8303V15.9373C123.461 15.8534 123.486 15.7863 123.536 15.736C123.595 15.6773 123.666 15.648 123.75 15.648H124.354C124.438 15.648 124.505 15.6773 124.555 15.736C124.614 15.7863 124.643 15.8534 124.643 15.9373V24.2893C124.643 24.3731 124.614 24.4444 124.555 24.5031C124.505 24.5534 124.438 24.5786 124.354 24.5786H123.788C123.704 24.5786 123.633 24.5534 123.574 24.5031C123.524 24.4444 123.499 24.3731 123.499 24.2893V23.761C123.012 24.3899 122.32 24.7044 121.423 24.7044ZM121.687 23.6855C122.266 23.6855 122.698 23.4969 122.983 23.1195C123.276 22.7338 123.436 22.2768 123.461 21.7485C123.469 21.6562 123.473 21.4969 123.473 21.2705C123.473 21.0357 123.469 20.8722 123.461 20.7799C123.444 20.2852 123.285 19.8533 122.983 19.4844C122.681 19.1154 122.249 18.9309 121.687 18.9309C121.092 18.9309 120.656 19.1154 120.379 19.4844C120.111 19.8533 119.964 20.3397 119.939 20.9435L119.926 21.3082C119.926 22.8931 120.513 23.6855 121.687 23.6855ZM131.542 24.5786C131.324 24.5786 131.169 24.4738 131.077 24.2641L128.75 18.4278L128.725 18.302C128.725 18.2265 128.75 18.1637 128.8 18.1133C128.85 18.063 128.913 18.0379 128.989 18.0379H129.593C129.735 18.0379 129.84 18.1091 129.907 18.2517L131.819 23.2076L133.731 18.2517C133.806 18.1091 133.907 18.0379 134.033 18.0379H134.649C134.716 18.0379 134.775 18.063 134.825 18.1133C134.884 18.1637 134.913 18.2265 134.913 18.302L134.888 18.4278L132.548 24.2641C132.456 24.4738 132.301 24.5786 132.083 24.5786H131.542ZM136.419 16.8178C136.335 16.8178 136.264 16.7926 136.205 16.7423C136.155 16.6836 136.13 16.6123 136.13 16.5285V15.8492C136.13 15.7654 136.155 15.6941 136.205 15.6354C136.264 15.5767 136.335 15.5474 136.419 15.5474H137.211C137.295 15.5474 137.366 15.5767 137.425 15.6354C137.484 15.6941 137.513 15.7654 137.513 15.8492V16.5285C137.513 16.6123 137.484 16.6836 137.425 16.7423C137.366 16.7926 137.295 16.8178 137.211 16.8178H136.419ZM136.52 24.5786C136.436 24.5786 136.364 24.5534 136.306 24.5031C136.255 24.4444 136.23 24.3731 136.23 24.2893V18.3272C136.23 18.2433 136.255 18.1762 136.306 18.1259C136.364 18.0672 136.436 18.0379 136.52 18.0379H137.123C137.207 18.0379 137.274 18.0672 137.325 18.1259C137.383 18.1762 137.413 18.2433 137.413 18.3272V24.2893C137.413 24.3731 137.383 24.4444 137.325 24.5031C137.274 24.5534 137.207 24.5786 137.123 24.5786H136.52ZM141.1 24.7044C140.69 24.7044 140.308 24.6205 139.956 24.4528C139.604 24.2851 139.323 24.0587 139.113 23.7736C138.912 23.4801 138.811 23.1572 138.811 22.805C138.811 22.2516 139.038 21.7988 139.49 21.4466C139.952 21.086 140.572 20.8512 141.352 20.7422L143.226 20.4781V20.1133C143.226 19.258 142.736 18.8303 141.754 18.8303C141.386 18.8303 141.084 18.91 140.849 19.0693C140.614 19.2202 140.438 19.4005 140.321 19.6102C140.295 19.6856 140.262 19.7401 140.22 19.7737C140.186 19.8072 140.136 19.824 140.069 19.824H139.528C139.453 19.824 139.386 19.7988 139.327 19.7485C139.277 19.6898 139.251 19.6227 139.251 19.5473C139.26 19.346 139.352 19.1196 139.528 18.868C139.713 18.6081 139.994 18.3859 140.371 18.2014C140.748 18.0085 141.214 17.9121 141.767 17.9121C142.706 17.9121 143.381 18.1343 143.792 18.5787C144.203 19.0148 144.408 19.5598 144.408 20.2139V24.2893C144.408 24.3731 144.379 24.4444 144.32 24.5031C144.27 24.5534 144.203 24.5786 144.119 24.5786H143.541C143.457 24.5786 143.385 24.5534 143.327 24.5031C143.276 24.4444 143.251 24.3731 143.251 24.2893V23.7484C143.067 24.0168 142.798 24.2432 142.446 24.4277C142.094 24.6121 141.645 24.7044 141.1 24.7044ZM141.365 23.761C141.91 23.761 142.354 23.5849 142.698 23.2327C143.05 22.8721 143.226 22.3564 143.226 21.6856V21.3334L141.767 21.5472C141.172 21.6311 140.723 21.7736 140.421 21.9749C140.119 22.1677 139.968 22.4151 139.968 22.717C139.968 23.0524 140.107 23.3124 140.383 23.4969C140.66 23.673 140.987 23.761 141.365 23.761Z" fill="white"/>
<path d="M67.9488 45.3494C67.8594 45.3494 67.7755 45.3158 67.6973 45.2488C67.6302 45.1705 67.5967 45.0866 67.5967 44.9972C67.5967 44.9301 67.6022 44.8798 67.6134 44.8463L71.5546 34.0792C71.5882 33.945 71.6608 33.8332 71.7727 33.7438C71.8845 33.6543 72.0298 33.6096 72.2087 33.6096H74.6908C74.8697 33.6096 75.0151 33.6543 75.1269 33.7438C75.2387 33.8332 75.3114 33.945 75.3449 34.0792L79.2693 44.8463L79.3029 44.9972C79.3029 45.0866 79.2637 45.1705 79.1855 45.2488C79.1184 45.3158 79.0345 45.3494 78.9339 45.3494H76.8711C76.6027 45.3494 76.4238 45.232 76.3344 44.9972L75.6803 43.2865H71.2024L70.5651 44.9972C70.4757 45.232 70.2912 45.3494 70.0117 45.3494H67.9488ZM75.0095 40.8715L73.4498 36.4439L71.8901 40.8715H75.0095ZM80.8596 48.5359C80.7478 48.5359 80.6471 48.4968 80.5577 48.4185C80.4794 48.3402 80.4403 48.2396 80.4403 48.1166V37.0477C80.4403 36.9247 80.4794 36.8241 80.5577 36.7458C80.6471 36.6676 80.7478 36.6284 80.8596 36.6284H82.7547C82.8777 36.6284 82.9783 36.6676 83.0566 36.7458C83.1348 36.8241 83.174 36.9247 83.174 37.0477V37.6515C83.7777 36.8576 84.6442 36.4607 85.7735 36.4607C86.8692 36.4607 87.7245 36.8017 88.3395 37.4837C88.9544 38.1658 89.2898 39.1273 89.3457 40.3684C89.3569 40.5137 89.3625 40.7206 89.3625 40.9889C89.3625 41.2572 89.3569 41.4641 89.3457 41.6094C89.301 42.817 88.9656 43.7729 88.3395 44.4773C87.7134 45.1705 86.858 45.5171 85.7735 45.5171C84.6778 45.5171 83.8616 45.1425 83.3249 44.3934V48.1166C83.3249 48.2396 83.2858 48.3402 83.2075 48.4185C83.1293 48.4968 83.0286 48.5359 82.9056 48.5359H80.8596ZM84.8679 43.2698C85.3934 43.2698 85.7679 43.1132 85.9915 42.8002C86.2263 42.4871 86.3605 42.0567 86.394 41.5088C86.4164 41.2852 86.4276 41.1119 86.4276 40.9889C86.4276 40.8659 86.4164 40.6926 86.394 40.469C86.3605 39.9211 86.2263 39.4907 85.9915 39.1776C85.7679 38.8646 85.3934 38.708 84.8679 38.708C84.3535 38.708 83.9734 38.8702 83.7274 39.1944C83.4926 39.5075 83.3585 39.9156 83.3249 40.4187L83.3082 41.0392L83.3249 41.6765C83.3473 42.1349 83.487 42.5151 83.7442 42.817C84.0014 43.1188 84.3759 43.2698 84.8679 43.2698ZM91.4398 48.5359C91.328 48.5359 91.2273 48.4968 91.1379 48.4185C91.0596 48.3402 91.0205 48.2396 91.0205 48.1166V37.0477C91.0205 36.9247 91.0596 36.8241 91.1379 36.7458C91.2273 36.6676 91.328 36.6284 91.4398 36.6284H93.3349C93.4579 36.6284 93.5585 36.6676 93.6368 36.7458C93.715 36.8241 93.7542 36.9247 93.7542 37.0477V37.6515C94.3579 36.8576 95.2244 36.4607 96.3537 36.4607C97.4494 36.4607 98.3047 36.8017 98.9197 37.4837C99.5346 38.1658 99.87 39.1273 99.9259 40.3684C99.9371 40.5137 99.9427 40.7206 99.9427 40.9889C99.9427 41.2572 99.9371 41.4641 99.9259 41.6094C99.8812 42.817 99.5458 43.7729 98.9197 44.4773C98.2936 45.1705 97.4382 45.5171 96.3537 45.5171C95.258 45.5171 94.4418 45.1425 93.9051 44.3934V48.1166C93.9051 48.2396 93.866 48.3402 93.7877 48.4185C93.7095 48.4968 93.6088 48.5359 93.4858 48.5359H91.4398ZM95.4481 43.2698C95.9736 43.2698 96.3481 43.1132 96.5717 42.8002C96.8065 42.4871 96.9407 42.0567 96.9742 41.5088C96.9966 41.2852 97.0078 41.1119 97.0078 40.9889C97.0078 40.8659 96.9966 40.6926 96.9742 40.469C96.9407 39.9211 96.8065 39.4907 96.5717 39.1776C96.3481 38.8646 95.9736 38.708 95.4481 38.708C94.9337 38.708 94.5536 38.8702 94.3076 39.1944C94.0728 39.5075 93.9387 39.9156 93.9051 40.4187L93.8883 41.0392L93.9051 41.6765C93.9275 42.1349 94.0672 42.5151 94.3244 42.817C94.5816 43.1188 94.9561 43.2698 95.4481 43.2698ZM102.02 45.3494C101.908 45.3494 101.807 45.3103 101.718 45.232C101.639 45.1425 101.6 45.0419 101.6 44.9301V33.8612C101.6 33.7382 101.639 33.6376 101.718 33.5593C101.807 33.481 101.908 33.4419 102.02 33.4419H103.999C104.122 33.4419 104.222 33.481 104.3 33.5593C104.379 33.6376 104.418 33.7382 104.418 33.8612V44.9301C104.418 45.0531 104.379 45.1537 104.3 45.232C104.222 45.3103 104.122 45.3494 103.999 45.3494H102.02ZM110.424 45.5171C109.082 45.5171 108.026 45.1537 107.254 44.427C106.483 43.7002 106.08 42.6437 106.047 41.2572V40.6703C106.092 39.3509 106.5 38.3223 107.271 37.5844C108.054 36.8353 109.099 36.4607 110.407 36.4607C111.358 36.4607 112.157 36.6564 112.806 37.0477C113.465 37.4278 113.957 37.9533 114.281 38.6242C114.617 39.295 114.785 40.0665 114.785 40.9386V41.3411C114.785 41.4529 114.745 41.5535 114.667 41.643C114.589 41.7212 114.488 41.7604 114.365 41.7604H108.999V41.8778C109.021 42.4033 109.15 42.8281 109.384 43.1524C109.619 43.4766 109.96 43.6387 110.407 43.6387C110.687 43.6387 110.916 43.5828 111.095 43.471C111.274 43.348 111.436 43.2027 111.581 43.035C111.682 42.912 111.76 42.8393 111.816 42.817C111.883 42.7834 111.984 42.7666 112.118 42.7666H114.198C114.298 42.7666 114.382 42.8002 114.449 42.8673C114.527 42.9232 114.567 43.0014 114.567 43.1021C114.567 43.3928 114.399 43.7282 114.063 44.1083C113.739 44.4885 113.264 44.8183 112.638 45.0978C112.012 45.3773 111.274 45.5171 110.424 45.5171ZM111.833 40.1V40.0665C111.833 39.5186 111.704 39.0882 111.447 38.7751C111.201 38.4509 110.855 38.2888 110.407 38.2888C109.971 38.2888 109.625 38.4509 109.368 38.7751C109.122 39.0882 108.999 39.5186 108.999 40.0665V40.1H111.833ZM124.489 45.5171C123.427 45.5171 122.516 45.3606 121.755 45.0475C120.995 44.7344 120.419 44.3264 120.028 43.8232C119.648 43.3089 119.447 42.7499 119.424 42.1461C119.424 42.0567 119.458 41.9784 119.525 41.9113C119.603 41.833 119.692 41.7939 119.793 41.7939H121.906C122.04 41.7939 122.147 41.8219 122.225 41.8778C122.314 41.9225 122.404 41.9952 122.493 42.0958C122.639 42.3865 122.873 42.6269 123.198 42.817C123.522 43.007 123.952 43.1021 124.489 43.1021C125.126 43.1021 125.613 43.0014 125.948 42.8002C126.284 42.5989 126.451 42.325 126.451 41.9784C126.451 41.7324 126.362 41.5312 126.183 41.3746C126.015 41.2181 125.747 41.0783 125.378 40.9554C125.009 40.8324 124.461 40.6926 123.734 40.5361C122.393 40.2566 121.386 39.8485 120.716 39.3118C120.056 38.7639 119.726 37.9869 119.726 36.9806C119.726 36.2986 119.916 35.6892 120.296 35.1526C120.676 34.6159 121.219 34.1966 121.923 33.8947C122.627 33.5929 123.449 33.4419 124.388 33.4419C125.361 33.4419 126.205 33.6096 126.921 33.945C127.636 34.2805 128.179 34.7053 128.548 35.2196C128.928 35.7228 129.129 36.2203 129.151 36.7123C129.151 36.8129 129.118 36.8968 129.051 36.9638C128.984 37.0309 128.9 37.0645 128.799 37.0645H126.585C126.451 37.0645 126.339 37.0421 126.25 36.9974C126.172 36.9527 126.099 36.88 126.032 36.7794C125.965 36.5222 125.78 36.3042 125.479 36.1253C125.188 35.9464 124.824 35.8569 124.388 35.8569C123.885 35.8569 123.5 35.9464 123.231 36.1253C122.963 36.3042 122.829 36.5669 122.829 36.9135C122.829 37.1483 122.901 37.344 123.047 37.5005C123.203 37.657 123.449 37.8024 123.785 37.9366C124.131 38.0596 124.623 38.1881 125.26 38.3223C126.3 38.5124 127.128 38.7528 127.743 39.0435C128.369 39.323 128.827 39.6919 129.118 40.1503C129.409 40.5976 129.554 41.1622 129.554 41.8442C129.554 42.5933 129.336 43.2474 128.9 43.8064C128.475 44.3543 127.877 44.7792 127.105 45.081C126.345 45.3717 125.473 45.5171 124.489 45.5171ZM135.509 45.3494C133.195 45.3494 132.037 44.2481 132.037 42.0455V38.8254H130.729C130.606 38.8254 130.5 38.7863 130.411 38.708C130.332 38.6298 130.293 38.5291 130.293 38.4062V37.0477C130.293 36.9247 130.332 36.8241 130.411 36.7458C130.5 36.6676 130.606 36.6284 130.729 36.6284H132.037V33.8612C132.037 33.7382 132.077 33.6376 132.155 33.5593C132.244 33.481 132.345 33.4419 132.457 33.4419H134.402C134.525 33.4419 134.626 33.481 134.704 33.5593C134.782 33.6376 134.821 33.7382 134.821 33.8612V36.6284H136.918C137.041 36.6284 137.141 36.6676 137.22 36.7458C137.309 36.8241 137.354 36.9247 137.354 37.0477V38.4062C137.354 38.5291 137.309 38.6298 137.22 38.708C137.141 38.7863 137.041 38.8254 136.918 38.8254H134.821V41.8107C134.821 42.6381 135.14 43.0517 135.777 43.0517H137.069C137.192 43.0517 137.292 43.0909 137.371 43.1691C137.449 43.2474 137.488 43.348 137.488 43.471V44.9301C137.488 45.0419 137.449 45.1425 137.371 45.232C137.292 45.3103 137.192 45.3494 137.069 45.3494H135.509ZM143.002 45.5171C141.616 45.5171 140.548 45.1873 139.799 44.5276C139.05 43.8679 138.642 42.9399 138.575 41.7436C138.564 41.5983 138.558 41.3467 138.558 40.9889C138.558 40.6311 138.564 40.3796 138.575 40.2342C138.642 39.049 139.061 38.1266 139.833 37.467C140.604 36.7961 141.661 36.4607 143.002 36.4607C144.355 36.4607 145.417 36.7961 146.189 37.467C146.96 38.1266 147.38 39.049 147.447 40.2342C147.458 40.3796 147.463 40.6311 147.463 40.9889C147.463 41.3467 147.458 41.5983 147.447 41.7436C147.38 42.9399 146.972 43.8679 146.222 44.5276C145.473 45.1873 144.4 45.5171 143.002 45.5171ZM143.002 43.471C143.494 43.471 143.858 43.3257 144.092 43.035C144.327 42.7331 144.461 42.2747 144.495 41.6597C144.506 41.5479 144.512 41.3243 144.512 40.9889C144.512 40.6535 144.506 40.4299 144.495 40.3181C144.461 39.7143 144.322 39.2615 144.076 38.9596C143.841 38.6577 143.483 38.5068 143.002 38.5068C142.074 38.5068 141.582 39.1105 141.526 40.3181L141.51 40.9889L141.526 41.6597C141.549 42.2747 141.677 42.7331 141.912 43.035C142.158 43.3257 142.522 43.471 143.002 43.471ZM149.549 45.3494C149.426 45.3494 149.325 45.3103 149.247 45.232C149.168 45.1537 149.129 45.0531 149.129 44.9301V37.0477C149.129 36.9247 149.168 36.8241 149.247 36.7458C149.325 36.6676 149.426 36.6284 149.549 36.6284H151.477C151.6 36.6284 151.701 36.6731 151.779 36.7626C151.869 36.8409 151.913 36.9359 151.913 37.0477V37.7185C152.528 36.9918 153.356 36.6284 154.395 36.6284H155.133C155.256 36.6284 155.357 36.6676 155.435 36.7458C155.513 36.8241 155.553 36.9247 155.553 37.0477V38.7751C155.553 38.8869 155.513 38.9876 155.435 39.077C155.357 39.1553 155.256 39.1944 155.133 39.1944H153.507C153.048 39.1944 152.69 39.323 152.433 39.5801C152.187 39.8261 152.064 40.1783 152.064 40.6367V44.9301C152.064 45.0531 152.02 45.1537 151.93 45.232C151.852 45.3103 151.751 45.3494 151.628 45.3494H149.549ZM160.688 45.5171C159.347 45.5171 158.29 45.1537 157.519 44.427C156.747 43.7002 156.345 42.6437 156.311 41.2572V40.6703C156.356 39.3509 156.764 38.3223 157.535 37.5844C158.318 36.8353 159.363 36.4607 160.671 36.4607C161.622 36.4607 162.421 36.6564 163.07 37.0477C163.729 37.4278 164.221 37.9533 164.546 38.6242C164.881 39.295 165.049 40.0665 165.049 40.9386V41.3411C165.049 41.4529 165.01 41.5535 164.931 41.643C164.853 41.7212 164.752 41.7604 164.629 41.7604H159.263V41.8778C159.285 42.4033 159.414 42.8281 159.648 43.1524C159.883 43.4766 160.224 43.6387 160.671 43.6387C160.951 43.6387 161.18 43.5828 161.359 43.471C161.538 43.348 161.7 43.2027 161.845 43.035C161.946 42.912 162.024 42.8393 162.08 42.817C162.147 42.7834 162.248 42.7666 162.382 42.7666H164.462C164.562 42.7666 164.646 42.8002 164.713 42.8673C164.792 42.9232 164.831 43.0014 164.831 43.1021C164.831 43.3928 164.663 43.7282 164.328 44.1083C164.003 44.4885 163.528 44.8183 162.902 45.0978C162.276 45.3773 161.538 45.5171 160.688 45.5171ZM162.097 40.1V40.0665C162.097 39.5186 161.968 39.0882 161.711 38.7751C161.465 38.4509 161.119 38.2888 160.671 38.2888C160.235 38.2888 159.889 38.4509 159.632 38.7751C159.386 39.0882 159.263 39.5186 159.263 40.0665V40.1H162.097Z" fill="white"/>
<path d="M36.7344 42.4141C36.1491 42.0293 35.6305 41.5539 35.1983 41.006C34.7228 40.4405 34.2824 39.8472 33.8792 39.2294C32.9331 37.8596 32.1912 36.3625 31.6761 34.7841C31.0574 32.9506 30.7578 31.1932 30.7578 29.4744C30.7578 27.5547 31.178 25.8789 31.9999 24.4708C32.6091 23.3702 33.5048 22.4505 34.5944 21.8068C35.6503 21.1586 36.8635 20.8039 38.1063 20.78C38.5413 20.78 39.0098 20.8423 39.507 20.9615C39.8641 21.0614 40.2992 21.2191 40.8307 21.4153C41.5069 21.6729 41.8789 21.8306 42.005 21.8691C42.4011 22.0121 42.7341 22.0744 42.9957 22.0744C43.1942 22.0744 43.4743 22.0121 43.7925 21.9168C43.9715 21.8544 44.3092 21.7444 44.7925 21.54C45.2711 21.3676 45.6477 21.22 45.9473 21.11C46.4065 20.9762 46.8508 20.8524 47.2469 20.7901C47.7165 20.7169 48.193 20.6975 48.6671 20.7323C49.4886 20.7854 50.2977 20.9574 51.0686 21.243C52.3293 21.7444 53.3487 22.5273 54.1075 23.6402C53.7868 23.8356 53.4858 24.0609 53.2086 24.3131C52.6053 24.8417 52.0914 25.4622 51.6864 26.1512C51.157 27.0927 50.8826 28.1534 50.8896 29.2305C50.9091 30.5534 51.2523 31.7185 51.9285 32.726C52.4257 33.4727 53.0718 34.1113 53.8273 34.6026C54.2141 34.8602 54.5472 35.0371 54.8663 35.1563C54.7169 35.6147 54.5574 36.0584 54.3691 36.4984C53.942 37.4852 53.4244 38.4312 52.8227 39.3247C52.2866 40.0939 51.8664 40.6668 51.5473 41.0482C51.0501 41.6303 50.5714 42.0749 50.0882 42.3848C49.5566 42.7332 48.9287 42.9193 48.2905 42.9193C47.8582 42.9357 47.4261 42.884 47.0104 42.7662C46.6532 42.647 46.2998 42.5177 45.952 42.3701C45.5903 42.206 45.2174 42.0672 44.8361 41.9548C43.8933 41.7155 42.9049 41.714 41.9614 41.9503C41.5746 42.0603 41.2026 42.1886 40.8353 42.3463C40.3186 42.5608 39.9754 42.7047 39.7769 42.7662C39.3808 42.8808 38.9699 42.9523 38.5543 42.9761C37.9115 42.9761 37.3123 42.7946 36.7186 42.427L36.7344 42.4141ZM45.2127 19.8486C44.3723 20.2639 43.5699 20.4408 42.7731 20.3831C42.6478 19.5901 42.7731 18.7788 43.1061 17.8904C43.3896 17.1379 43.8085 16.4422 44.3426 15.8369C44.9066 15.1998 45.5909 14.6776 46.3573 14.2996C47.1736 13.8843 47.9519 13.6597 48.6958 13.6267C48.7923 14.4573 48.6958 15.2741 48.3869 16.1569C48.1011 16.9373 47.6829 17.6639 47.1504 18.3057C46.6069 18.9437 45.9399 19.468 45.1886 19.8477L45.2127 19.8486Z" fill="white"/>
</svg>
