<svg width="202" height="63" viewBox="0 0 202 63" fill="none" xmlns="http://www.w3.org/2000/svg">
<path d="M190.62 0H11.3803C5.09513 0 0 5.09513 0 11.3803V51.2112C0 57.4964 5.09513 62.5915 11.3803 62.5915H190.62C196.905 62.5915 202 57.4964 202 51.2112V11.3803C202 5.09513 196.905 0 190.62 0Z" fill="black"/>
<path d="M68.8284 24.3462C68.7446 24.3462 68.6733 24.321 68.6146 24.2707C68.5643 24.212 68.5391 24.1407 68.5391 24.0569V15.8432C68.5391 15.751 68.5643 15.6797 68.6146 15.6294C68.6733 15.5707 68.7446 15.5414 68.8284 15.5414H71.6837C72.9499 15.5414 73.8639 15.8265 74.4258 16.3967C74.9876 16.9585 75.2811 17.8096 75.3063 18.9501C75.3146 19.1933 75.3188 19.5203 75.3188 19.9312C75.3188 20.3421 75.3146 20.6733 75.3063 20.9249C75.2811 21.7215 75.1469 22.3714 74.9038 22.8745C74.669 23.3693 74.2958 23.7382 73.7843 23.9814C73.2728 24.2246 72.5935 24.3462 71.7466 24.3462H68.8284ZM71.6837 23.277C72.2623 23.277 72.7193 23.1974 73.0547 23.038C73.3985 22.8787 73.6459 22.6271 73.7969 22.2833C73.9562 21.9311 74.0442 21.4616 74.061 20.8746C74.0778 20.3714 74.0862 20.057 74.0862 19.9312C74.0862 19.797 74.0778 19.4868 74.061 19.0004C74.0442 18.1702 73.8472 17.5665 73.4698 17.1891C73.0925 16.8034 72.4761 16.6105 71.6208 16.6105H69.7718V23.277H71.6837ZM79.7269 24.472C78.8045 24.472 78.0876 24.212 77.5761 23.6921C77.0729 23.1722 76.8046 22.4804 76.771 21.6167L76.7585 21.0758L76.771 20.5349C76.8046 19.6796 77.0771 18.992 77.5886 18.4721C78.1002 17.9438 78.8129 17.6797 79.7269 17.6797C80.641 17.6797 81.3537 17.9438 81.8653 18.4721C82.3768 18.992 82.6493 19.6796 82.6829 20.5349C82.6912 20.6272 82.6954 20.8075 82.6954 21.0758C82.6954 21.3442 82.6912 21.5244 82.6829 21.6167C82.6493 22.4804 82.3768 23.1722 81.8653 23.6921C81.3621 24.212 80.6494 24.472 79.7269 24.472ZM79.7269 23.5034C80.2552 23.5034 80.6703 23.3357 80.9722 23.0003C81.2825 22.6649 81.4502 22.1827 81.4753 21.5538C81.4837 21.4699 81.4879 21.3106 81.4879 21.0758C81.4879 20.841 81.4837 20.6817 81.4753 20.5978C81.4502 19.9689 81.2825 19.4868 80.9722 19.1513C80.6703 18.8159 80.2552 18.6482 79.7269 18.6482C79.1987 18.6482 78.7794 18.8159 78.4691 19.1513C78.1589 19.4868 77.9953 19.9689 77.9786 20.5978L77.966 21.0758L77.9786 21.5538C77.9953 22.1827 78.1589 22.6649 78.4691 23.0003C78.7794 23.3357 79.1987 23.5034 79.7269 23.5034ZM85.8343 24.3462C85.7253 24.3462 85.6414 24.321 85.5827 24.2707C85.524 24.2204 85.4737 24.1407 85.4318 24.0317L83.6457 18.1954L83.6205 18.0696C83.6205 17.9941 83.6457 17.9312 83.696 17.8809C83.7547 17.8306 83.8176 17.8055 83.8847 17.8055H84.4381C84.522 17.8055 84.5891 17.8306 84.6394 17.8809C84.6981 17.9229 84.7358 17.969 84.7526 18.0193L86.1488 22.7613L87.6456 18.0696C87.6624 18.0025 87.7001 17.9438 87.7588 17.8935C87.8175 17.8348 87.8972 17.8055 87.9978 17.8055H88.4254C88.5261 17.8055 88.6057 17.8348 88.6644 17.8935C88.7231 17.9438 88.7609 18.0025 88.7776 18.0696L90.2745 22.7613L91.6706 18.0193C91.679 17.9774 91.7084 17.9312 91.7587 17.8809C91.8174 17.8306 91.8887 17.8055 91.9725 17.8055H92.5386C92.6056 17.8055 92.6643 17.8306 92.7146 17.8809C92.765 17.9312 92.7901 17.9941 92.7901 18.0696L92.765 18.1954L90.9914 24.0317C90.9495 24.1407 90.8992 24.2204 90.8405 24.2707C90.7818 24.321 90.6937 24.3462 90.5763 24.3462H90.0858C89.8594 24.3462 89.721 24.2414 89.6707 24.0317L88.2116 19.5287L86.7525 24.0317C86.6854 24.2414 86.5429 24.3462 86.3249 24.3462H85.8343ZM94.4726 24.3462C94.3887 24.3462 94.3174 24.321 94.2587 24.2707C94.2084 24.212 94.1833 24.1407 94.1833 24.0569V18.0948C94.1833 18.0109 94.2084 17.9438 94.2587 17.8935C94.3174 17.8348 94.3887 17.8055 94.4726 17.8055H95.0637C95.1476 17.8055 95.2147 17.8348 95.265 17.8935C95.3237 17.9438 95.353 18.0109 95.353 18.0948V18.6482C95.5962 18.3379 95.8813 18.0989 96.2084 17.9312C96.5438 17.7635 96.9589 17.6797 97.4536 17.6797C98.2586 17.6797 98.8834 17.9396 99.3278 18.4595C99.7806 18.971 100.007 19.6545 100.007 20.5098V24.0569C100.007 24.1407 99.9777 24.212 99.919 24.2707C99.8687 24.321 99.8016 24.3462 99.7177 24.3462H99.0888C99.005 24.3462 98.9337 24.321 98.875 24.2707C98.8247 24.212 98.7995 24.1407 98.7995 24.0569V20.5727C98.7995 19.9773 98.6528 19.5161 98.3593 19.1891C98.0742 18.862 97.6591 18.6985 97.114 18.6985C96.5857 18.6985 96.1664 18.8662 95.8562 19.2016C95.5459 19.5287 95.3908 19.9857 95.3908 20.5727V24.0569C95.3908 24.1407 95.3614 24.212 95.3027 24.2707C95.2524 24.321 95.1853 24.3462 95.1015 24.3462H94.4726ZM102.113 24.3462C102.029 24.3462 101.958 24.321 101.899 24.2707C101.849 24.212 101.823 24.1407 101.823 24.0569V15.7049C101.823 15.621 101.849 15.5539 101.899 15.5036C101.958 15.4449 102.029 15.4156 102.113 15.4156H102.704C102.788 15.4156 102.855 15.4449 102.905 15.5036C102.964 15.5539 102.993 15.621 102.993 15.7049V24.0569C102.993 24.1407 102.964 24.212 102.905 24.2707C102.855 24.321 102.788 24.3462 102.704 24.3462H102.113ZM107.549 24.472C106.626 24.472 105.909 24.212 105.398 23.6921C104.895 23.1722 104.626 22.4804 104.593 21.6167L104.58 21.0758L104.593 20.5349C104.626 19.6796 104.899 18.992 105.41 18.4721C105.922 17.9438 106.635 17.6797 107.549 17.6797C108.463 17.6797 109.175 17.9438 109.687 18.4721C110.198 18.992 110.471 19.6796 110.505 20.5349C110.513 20.6272 110.517 20.8075 110.517 21.0758C110.517 21.3442 110.513 21.5244 110.505 21.6167C110.471 22.4804 110.198 23.1722 109.687 23.6921C109.184 24.212 108.471 24.472 107.549 24.472ZM107.549 23.5034C108.077 23.5034 108.492 23.3357 108.794 23.0003C109.104 22.6649 109.272 22.1827 109.297 21.5538C109.305 21.4699 109.31 21.3106 109.31 21.0758C109.31 20.841 109.305 20.6817 109.297 20.5978C109.272 19.9689 109.104 19.4868 108.794 19.1513C108.492 18.8159 108.077 18.6482 107.549 18.6482C107.02 18.6482 106.601 18.8159 106.291 19.1513C105.981 19.4868 105.817 19.9689 105.8 20.5978L105.788 21.0758L105.8 21.5538C105.817 22.1827 105.981 22.6649 106.291 23.0003C106.601 23.3357 107.02 23.5034 107.549 23.5034ZM113.916 24.472C113.505 24.472 113.124 24.3881 112.771 24.2204C112.419 24.0527 112.138 23.8263 111.929 23.5412C111.727 23.2477 111.627 22.9248 111.627 22.5726C111.627 22.0192 111.853 21.5664 112.306 21.2142C112.767 20.8536 113.388 20.6188 114.168 20.5098L116.042 20.2456V19.8809C116.042 19.0256 115.551 18.5979 114.57 18.5979C114.201 18.5979 113.899 18.6776 113.664 18.8369C113.43 18.9878 113.254 19.1681 113.136 19.3777C113.111 19.4532 113.077 19.5077 113.035 19.5413C113.002 19.5748 112.952 19.5916 112.885 19.5916H112.344C112.268 19.5916 112.201 19.5664 112.142 19.5161C112.092 19.4574 112.067 19.3903 112.067 19.3149C112.075 19.1136 112.168 18.8872 112.344 18.6356C112.528 18.3757 112.809 18.1535 113.186 17.969C113.564 17.7761 114.029 17.6797 114.583 17.6797C115.522 17.6797 116.197 17.9019 116.608 18.3463C117.019 18.7824 117.224 19.3274 117.224 19.9815V24.0569C117.224 24.1407 117.195 24.212 117.136 24.2707C117.086 24.321 117.019 24.3462 116.935 24.3462H116.356C116.272 24.3462 116.201 24.321 116.142 24.2707C116.092 24.212 116.067 24.1407 116.067 24.0569V23.516C115.882 23.7843 115.614 24.0108 115.262 24.1952C114.91 24.3797 114.461 24.472 113.916 24.472ZM114.18 23.5286C114.725 23.5286 115.17 23.3525 115.513 23.0003C115.866 22.6397 116.042 22.124 116.042 21.4532V21.101L114.583 21.3148C113.987 21.3987 113.539 21.5412 113.237 21.7425C112.935 21.9353 112.784 22.1827 112.784 22.4846C112.784 22.82 112.922 23.08 113.199 23.2644C113.476 23.4405 113.803 23.5286 114.18 23.5286ZM121.422 24.472C120.55 24.472 119.892 24.1869 119.447 23.6166C119.003 23.0464 118.768 22.3253 118.743 21.4532L118.73 21.0758L118.743 20.6985C118.768 19.8348 119.003 19.1178 119.447 18.5476C119.892 17.969 120.55 17.6797 121.422 17.6797C122.286 17.6797 122.965 17.9857 123.46 18.5979V15.7049C123.46 15.621 123.485 15.5539 123.535 15.5036C123.594 15.4449 123.665 15.4156 123.749 15.4156H124.353C124.437 15.4156 124.504 15.4449 124.554 15.5036C124.613 15.5539 124.642 15.621 124.642 15.7049V24.0569C124.642 24.1407 124.613 24.212 124.554 24.2707C124.504 24.321 124.437 24.3462 124.353 24.3462H123.787C123.703 24.3462 123.632 24.321 123.573 24.2707C123.523 24.212 123.498 24.1407 123.498 24.0569V23.5286C123.011 24.1575 122.319 24.472 121.422 24.472ZM121.686 23.4531C122.265 23.4531 122.697 23.2644 122.982 22.8871C123.275 22.5014 123.435 22.0443 123.46 21.5161C123.468 21.4238 123.472 21.2645 123.472 21.0381C123.472 20.8033 123.468 20.6398 123.46 20.5475C123.443 20.0528 123.284 19.6209 122.982 19.252C122.68 18.883 122.248 18.6985 121.686 18.6985C121.091 18.6985 120.655 18.883 120.378 19.252C120.11 19.6209 119.963 20.1073 119.938 20.711L119.925 21.0758C119.925 22.6607 120.512 23.4531 121.686 23.4531ZM131.541 24.3462C131.323 24.3462 131.168 24.2414 131.076 24.0317L128.749 18.1954L128.724 18.0696C128.724 17.9941 128.749 17.9312 128.799 17.8809C128.849 17.8306 128.912 17.8055 128.988 17.8055H129.592C129.734 17.8055 129.839 17.8767 129.906 18.0193L131.818 22.9751L133.73 18.0193C133.805 17.8767 133.906 17.8055 134.032 17.8055H134.648C134.715 17.8055 134.774 17.8306 134.824 17.8809C134.883 17.9312 134.912 17.9941 134.912 18.0696L134.887 18.1954L132.547 24.0317C132.455 24.2414 132.3 24.3462 132.082 24.3462H131.541ZM136.418 16.5854C136.334 16.5854 136.263 16.5602 136.204 16.5099C136.154 16.4512 136.129 16.3799 136.129 16.2961V15.6168C136.129 15.533 136.154 15.4617 136.204 15.403C136.263 15.3443 136.334 15.3149 136.418 15.3149H137.21C137.294 15.3149 137.365 15.3443 137.424 15.403C137.483 15.4617 137.512 15.533 137.512 15.6168V16.2961C137.512 16.3799 137.483 16.4512 137.424 16.5099C137.365 16.5602 137.294 16.5854 137.21 16.5854H136.418ZM136.519 24.3462C136.435 24.3462 136.363 24.321 136.305 24.2707C136.254 24.212 136.229 24.1407 136.229 24.0569V18.0948C136.229 18.0109 136.254 17.9438 136.305 17.8935C136.363 17.8348 136.435 17.8055 136.519 17.8055H137.122C137.206 17.8055 137.273 17.8348 137.324 17.8935C137.382 17.9438 137.412 18.0109 137.412 18.0948V24.0569C137.412 24.1407 137.382 24.212 137.324 24.2707C137.273 24.321 137.206 24.3462 137.122 24.3462H136.519ZM141.099 24.472C140.689 24.472 140.307 24.3881 139.955 24.2204C139.603 24.0527 139.322 23.8263 139.112 23.5412C138.911 23.2477 138.81 22.9248 138.81 22.5726C138.81 22.0192 139.037 21.5664 139.489 21.2142C139.951 20.8536 140.571 20.6188 141.351 20.5098L143.225 20.2456V19.8809C143.225 19.0256 142.735 18.5979 141.753 18.5979C141.385 18.5979 141.083 18.6776 140.848 18.8369C140.613 18.9878 140.437 19.1681 140.32 19.3777C140.294 19.4532 140.261 19.5077 140.219 19.5413C140.185 19.5748 140.135 19.5916 140.068 19.5916H139.527C139.452 19.5916 139.385 19.5664 139.326 19.5161C139.276 19.4574 139.25 19.3903 139.25 19.3149C139.259 19.1136 139.351 18.8872 139.527 18.6356C139.712 18.3757 139.993 18.1535 140.37 17.969C140.747 17.7761 141.213 17.6797 141.766 17.6797C142.705 17.6797 143.38 17.9019 143.791 18.3463C144.202 18.7824 144.407 19.3274 144.407 19.9815V24.0569C144.407 24.1407 144.378 24.212 144.319 24.2707C144.269 24.321 144.202 24.3462 144.118 24.3462H143.54C143.456 24.3462 143.384 24.321 143.326 24.2707C143.275 24.212 143.25 24.1407 143.25 24.0569V23.516C143.066 23.7843 142.797 24.0108 142.445 24.1952C142.093 24.3797 141.644 24.472 141.099 24.472ZM141.364 23.5286C141.909 23.5286 142.353 23.3525 142.697 23.0003C143.049 22.6397 143.225 22.124 143.225 21.4532V21.101L141.766 21.3148C141.171 21.3987 140.722 21.5412 140.42 21.7425C140.118 21.9353 139.967 22.1827 139.967 22.4846C139.967 22.82 140.106 23.08 140.382 23.2644C140.659 23.4405 140.986 23.5286 141.364 23.5286Z" fill="white"/>
<path d="M73.4659 45.2852C71.8559 45.2852 70.5981 44.8939 69.6924 44.1113C68.7868 43.3174 68.306 42.1938 68.2501 40.7403C68.2389 40.416 68.2334 39.9017 68.2334 39.1973C68.2334 38.4929 68.2389 37.9786 68.2501 37.6544C68.306 36.2344 68.7924 35.1387 69.7092 34.3672C70.6372 33.5958 71.8895 33.21 73.4659 33.21C74.5281 33.21 75.4505 33.3833 76.2332 33.7299C77.027 34.0766 77.6308 34.5182 78.0444 35.0549C78.4693 35.5915 78.6929 36.145 78.7153 36.7152C78.7153 36.8158 78.6762 36.8997 78.5979 36.9668C78.5308 37.0339 78.4469 37.0674 78.3463 37.0674H75.8977C75.7859 37.0674 75.6965 37.0506 75.6294 37.0171C75.5623 36.9835 75.5064 36.922 75.4617 36.8326C75.3163 36.5084 75.0871 36.2288 74.7741 35.994C74.461 35.7481 74.025 35.6251 73.4659 35.6251C72.1354 35.6251 71.4366 36.3295 71.3695 37.7382C71.3584 38.0513 71.3528 38.5377 71.3528 39.1973C71.3528 39.8458 71.3584 40.3322 71.3695 40.6564C71.4366 42.1323 72.1522 42.8702 73.5162 42.8702C74.1759 42.8702 74.7014 42.7025 75.0927 42.3671C75.4952 42.0205 75.6965 41.495 75.6965 40.7906V40.4719H74.12C73.997 40.4719 73.8964 40.4328 73.8181 40.3545C73.7399 40.2651 73.7007 40.1589 73.7007 40.0359V38.7948C73.7007 38.6718 73.7399 38.5712 73.8181 38.4929C73.8964 38.4035 73.997 38.3588 74.12 38.3588H78.3463C78.4693 38.3588 78.5699 38.4035 78.6482 38.4929C78.7265 38.5712 78.7656 38.6718 78.7656 38.7948V40.7067C78.7656 41.6571 78.5476 42.4789 78.1115 43.1721C77.6755 43.8541 77.0549 44.3796 76.2499 44.7486C75.4561 45.1063 74.5281 45.2852 73.4659 45.2852ZM84.6309 45.2852C83.2445 45.2852 82.1767 44.9554 81.4276 44.2957C80.6785 43.6361 80.2704 42.7081 80.2033 41.5117C80.1921 41.3664 80.1866 41.1148 80.1866 40.757C80.1866 40.3993 80.1921 40.1477 80.2033 40.0023C80.2704 38.8172 80.6897 37.8948 81.4612 37.2351C82.2326 36.5643 83.2892 36.2288 84.6309 36.2288C85.9838 36.2288 87.0459 36.5643 87.8174 37.2351C88.5889 37.8948 89.0081 38.8172 89.0752 40.0023C89.0864 40.1477 89.092 40.3993 89.092 40.757C89.092 41.1148 89.0864 41.3664 89.0752 41.5117C89.0081 42.7081 88.6001 43.6361 87.8509 44.2957C87.1018 44.9554 86.0285 45.2852 84.6309 45.2852ZM84.6309 43.2392C85.1228 43.2392 85.4862 43.0938 85.721 42.8031C85.9558 42.5012 86.09 42.0428 86.1235 41.4279C86.1347 41.3161 86.1403 41.0925 86.1403 40.757C86.1403 40.4216 86.1347 40.198 86.1235 40.0862C86.09 39.4824 85.9502 39.0296 85.7042 38.7277C85.4694 38.4259 85.1117 38.2749 84.6309 38.2749C83.7029 38.2749 83.2109 38.8787 83.155 40.0862L83.1383 40.757L83.155 41.4279C83.1774 42.0428 83.306 42.5012 83.5408 42.8031C83.7867 43.0938 84.1501 43.2392 84.6309 43.2392ZM94.8835 45.2852C93.4971 45.2852 92.4294 44.9554 91.6803 44.2957C90.9311 43.6361 90.523 42.7081 90.456 41.5117C90.4448 41.3664 90.4392 41.1148 90.4392 40.757C90.4392 40.3993 90.4448 40.1477 90.456 40.0023C90.523 38.8172 90.9423 37.8948 91.7138 37.2351C92.4853 36.5643 93.5418 36.2288 94.8835 36.2288C96.2364 36.2288 97.2986 36.5643 98.07 37.2351C98.8415 37.8948 99.2608 38.8172 99.3279 40.0023C99.3391 40.1477 99.3446 40.3993 99.3446 40.757C99.3446 41.1148 99.3391 41.3664 99.3279 41.5117C99.2608 42.7081 98.8527 43.6361 98.1036 44.2957C97.3545 44.9554 96.2811 45.2852 94.8835 45.2852ZM94.8835 43.2392C95.3755 43.2392 95.7389 43.0938 95.9737 42.8031C96.2084 42.5012 96.3426 42.0428 96.3762 41.4279C96.3873 41.3161 96.3929 41.0925 96.3929 40.757C96.3929 40.4216 96.3873 40.198 96.3762 40.0862C96.3426 39.4824 96.2029 39.0296 95.9569 38.7277C95.7221 38.4259 95.3643 38.2749 94.8835 38.2749C93.9555 38.2749 93.4636 38.8787 93.4077 40.0862L93.3909 40.757L93.4077 41.4279C93.43 42.0428 93.5586 42.5012 93.7934 42.8031C94.0394 43.0938 94.4028 43.2392 94.8835 43.2392ZM105.287 48.8072C104.225 48.8072 103.364 48.6339 102.705 48.2873C102.045 47.9407 101.57 47.5437 101.279 47.0965C101 46.6493 100.86 46.2747 100.86 45.9728C100.86 45.8722 100.904 45.7828 100.994 45.7045C101.083 45.6262 101.184 45.5871 101.296 45.5871H103.426C103.538 45.5871 103.621 45.6095 103.677 45.6542C103.744 45.7101 103.806 45.7995 103.862 45.9225C103.974 46.1797 104.125 46.3809 104.315 46.5263C104.505 46.6828 104.801 46.7611 105.203 46.7611C105.718 46.7611 106.098 46.6325 106.344 46.3754C106.59 46.1294 106.713 45.7101 106.713 45.1175V43.9939C106.143 44.62 105.326 44.933 104.264 44.933C103.135 44.933 102.269 44.6032 101.665 43.9435C101.072 43.2727 100.748 42.3056 100.692 41.0421L100.675 40.5893C100.675 39.2365 100.977 38.1743 101.581 37.4028C102.185 36.6202 103.079 36.2288 104.264 36.2288C104.834 36.2288 105.338 36.3406 105.774 36.5643C106.21 36.7767 106.579 37.0674 106.881 37.4364V36.8158C106.881 36.6928 106.92 36.5922 106.998 36.5139C107.087 36.4357 107.188 36.3966 107.3 36.3966H109.229C109.352 36.3966 109.452 36.4413 109.53 36.5307C109.62 36.609 109.665 36.704 109.665 36.8158V44.8827C109.665 46.1573 109.284 47.13 108.524 47.8009C107.764 48.4717 106.685 48.8072 105.287 48.8072ZM105.17 42.7528C105.673 42.7528 106.048 42.6019 106.294 42.3C106.54 41.9869 106.679 41.5956 106.713 41.126C106.724 41.0477 106.73 40.8744 106.73 40.6061C106.73 40.3489 106.724 40.1812 106.713 40.103C106.69 39.6334 106.551 39.2476 106.294 38.9458C106.048 38.6327 105.673 38.4762 105.17 38.4762C104.644 38.4762 104.264 38.6327 104.029 38.9458C103.795 39.2588 103.666 39.6893 103.644 40.2371L103.627 40.6061C103.627 41.2658 103.739 41.7913 103.962 42.1826C104.186 42.5627 104.589 42.7528 105.17 42.7528ZM112.059 45.1175C111.947 45.1175 111.847 45.0784 111.757 45.0001C111.679 44.9107 111.64 44.81 111.64 44.6982V33.6293C111.64 33.5063 111.679 33.4057 111.757 33.3274C111.847 33.2492 111.947 33.21 112.059 33.21H114.038C114.161 33.21 114.262 33.2492 114.34 33.3274C114.418 33.4057 114.458 33.5063 114.458 33.6293V44.6982C114.458 44.8212 114.418 44.9219 114.34 45.0001C114.262 45.0784 114.161 45.1175 114.038 45.1175H112.059ZM120.464 45.2852C119.122 45.2852 118.066 44.9219 117.294 44.1951C116.523 43.4684 116.12 42.4118 116.087 41.0254V40.4384C116.131 39.1191 116.539 38.0904 117.311 37.3525C118.094 36.6034 119.139 36.2288 120.447 36.2288C121.397 36.2288 122.197 36.4245 122.845 36.8158C123.505 37.196 123.997 37.7215 124.321 38.3923C124.657 39.0632 124.824 39.8346 124.824 40.7067V41.1092C124.824 41.221 124.785 41.3217 124.707 41.4111C124.629 41.4894 124.528 41.5285 124.405 41.5285H119.038V41.6459C119.061 42.1714 119.189 42.5963 119.424 42.9205C119.659 43.2447 120 43.4069 120.447 43.4069C120.727 43.4069 120.956 43.351 121.135 43.2392C121.314 43.1162 121.476 42.9708 121.621 42.8031C121.722 42.6801 121.8 42.6074 121.856 42.5851C121.923 42.5515 122.024 42.5348 122.158 42.5348H124.237C124.338 42.5348 124.422 42.5683 124.489 42.6354C124.567 42.6913 124.606 42.7696 124.606 42.8702C124.606 43.1609 124.439 43.4963 124.103 43.8765C123.779 44.2566 123.304 44.5864 122.678 44.866C122.051 45.1455 121.314 45.2852 120.464 45.2852ZM121.873 39.8682V39.8346C121.873 39.2868 121.744 38.8563 121.487 38.5433C121.241 38.219 120.894 38.0569 120.447 38.0569C120.011 38.0569 119.664 38.219 119.407 38.5433C119.161 38.8563 119.038 39.2868 119.038 39.8346V39.8682H121.873ZM130.571 45.1175C130.459 45.1175 130.358 45.0784 130.269 45.0001C130.191 44.9107 130.152 44.81 130.152 44.6982V33.797C130.152 33.674 130.191 33.5734 130.269 33.4952C130.358 33.4169 130.459 33.3778 130.571 33.3778H135.267C136.698 33.3778 137.821 33.7076 138.638 34.3672C139.465 35.0269 139.879 35.9885 139.879 37.2519C139.879 38.5041 139.471 39.4489 138.654 40.0862C137.838 40.7123 136.709 41.0254 135.267 41.0254H133.271V44.6982C133.271 44.8212 133.226 44.9219 133.137 45.0001C133.058 45.0784 132.958 45.1175 132.835 45.1175H130.571ZM135.183 38.711C135.675 38.711 136.061 38.588 136.34 38.342C136.62 38.0848 136.759 37.7103 136.759 37.2183C136.759 36.7599 136.625 36.3966 136.357 36.1282C136.1 35.8487 135.708 35.7089 135.183 35.7089H133.221V38.711H135.183ZM141.72 45.1175C141.608 45.1175 141.507 45.0784 141.418 45.0001C141.34 44.9107 141.301 44.81 141.301 44.6982V33.6293C141.301 33.5063 141.34 33.4057 141.418 33.3274C141.507 33.2492 141.608 33.21 141.72 33.21H143.699C143.822 33.21 143.922 33.2492 144.001 33.3274C144.079 33.4057 144.118 33.5063 144.118 33.6293V44.6982C144.118 44.8212 144.079 44.9219 144.001 45.0001C143.922 45.0784 143.822 45.1175 143.699 45.1175H141.72ZM148.716 45.2852C148.123 45.2852 147.581 45.1734 147.089 44.9498C146.608 44.715 146.228 44.402 145.948 44.0106C145.68 43.6081 145.546 43.1665 145.546 42.6857C145.546 41.9142 145.859 41.2937 146.485 40.8241C147.122 40.3545 147.994 40.0303 149.101 39.8514L151.198 39.5327V39.298C151.198 38.8731 151.108 38.56 150.929 38.3588C150.751 38.1575 150.449 38.0569 150.024 38.0569C149.767 38.0569 149.554 38.1016 149.386 38.1911C149.219 38.2805 149.045 38.4035 148.867 38.56C148.71 38.6942 148.593 38.7836 148.514 38.8284C148.481 38.9178 148.419 38.9625 148.33 38.9625H146.502C146.39 38.9625 146.295 38.929 146.217 38.8619C146.15 38.7836 146.122 38.6942 146.133 38.5936C146.144 38.2917 146.289 37.9563 146.569 37.5873C146.86 37.2183 147.296 36.8997 147.877 36.6313C148.47 36.363 149.196 36.2288 150.057 36.2288C151.433 36.2288 152.45 36.5363 153.11 37.1513C153.769 37.755 154.099 38.5712 154.099 39.5998V44.6982C154.099 44.81 154.06 44.9107 153.982 45.0001C153.904 45.0784 153.803 45.1175 153.68 45.1175H151.734C151.623 45.1175 151.522 45.0784 151.433 45.0001C151.354 44.9107 151.315 44.81 151.315 44.6982V44.1113C151.069 44.4579 150.723 44.743 150.275 44.9666C149.839 45.179 149.319 45.2852 148.716 45.2852ZM149.504 43.3733C150.018 43.3733 150.432 43.2056 150.745 42.8702C151.069 42.5348 151.231 42.0428 151.231 41.3943V41.1595L149.806 41.4111C148.8 41.59 148.296 41.9422 148.296 42.4677C148.296 42.7472 148.414 42.9708 148.649 43.1385C148.883 43.2951 149.168 43.3733 149.504 43.3733ZM157.34 48.304C157.239 48.304 157.156 48.2705 157.088 48.2034C157.021 48.1363 156.988 48.0525 156.988 47.9518C156.988 47.8736 157.005 47.8009 157.038 47.7338L158.346 44.5808L155.126 36.9668C155.093 36.8773 155.076 36.8102 155.076 36.7655C155.098 36.6649 155.143 36.581 155.21 36.5139C155.277 36.4357 155.361 36.3966 155.462 36.3966H157.374C157.608 36.3966 157.771 36.5139 157.86 36.7487L159.772 41.6291L161.734 36.7487C161.846 36.5139 162.014 36.3966 162.237 36.3966H164.116C164.216 36.3966 164.3 36.4357 164.367 36.5139C164.445 36.581 164.485 36.6593 164.485 36.7487C164.485 36.7935 164.468 36.8661 164.434 36.9668L159.688 47.9518C159.599 48.1866 159.431 48.304 159.185 48.304H157.34Z" fill="white"/>
<path d="M46.2742 29.102L35.6301 18.2265L49.1725 26.1486L46.2742 29.102ZM32.853 17.5872C32.2256 17.9214 31.8066 18.5308 31.8066 19.3218V41.0092C31.8066 41.8003 32.2264 42.4097 32.853 42.7439L45.2286 30.1628L32.853 17.5872ZM53.3587 28.6743L50.5183 26.9987L47.3499 30.1683L50.5183 33.3379L53.4166 31.6623C54.2847 30.9601 54.2847 29.3773 53.3587 28.6743ZM35.6309 42.1109L49.1733 34.1887L46.275 31.2353L35.6309 42.1109Z" fill="white"/>
</svg>
