<svg width="105" height="45" viewBox="0 0 105 45" fill="none" xmlns="http://www.w3.org/2000/svg">
<g clip-path="url(#clip0_404_59)">
<path d="M104.999 16.4279C104.999 7.35502 97.5631 -3.8147e-06 88.3899 -3.8147e-06C79.2166 -3.8147e-06 71.7803 7.35502 71.7803 16.4279C71.7803 25.5008 79.2166 32.8558 88.3899 32.8558C97.5631 32.8558 104.999 25.5008 104.999 16.4279Z" fill="#FFD900"/>
<path d="M30.7504 17.8182C30.7504 26.502 26.1778 31.5843 20.635 31.5843C19.4646 31.6482 18.3025 31.3566 17.3044 30.7487C16.3064 30.1409 15.52 29.2457 15.0509 28.1833C14.3345 29.2671 13.3475 30.1496 12.1852 30.7454C11.0229 31.3412 9.72483 31.6302 8.41655 31.5843C5.22081 31.5843 1.57819 29.8634 1.57819 23.4601V16.496C1.57819 14.7355 0.000976562 14.3356 0.000976562 13.4553V13.3315C0.0123707 13.1191 0.100096 12.9176 0.248354 12.7635C0.396613 12.6094 0.595652 12.5127 0.809608 12.4909L5.98813 11.7307C6.99955 11.6069 7.60666 11.7703 7.60666 12.731L7.52655 25.8174C7.48649 27.9382 8.25382 29.2976 9.71086 29.2976C12.665 29.2976 14.1609 24.9359 14.1609 21.2935V16.496C14.1609 14.7355 12.5824 14.3356 12.5824 13.4553V13.3315C12.5963 13.1128 12.6905 12.9068 12.8472 12.7519C13.004 12.5971 13.2125 12.5043 13.4336 12.4909L18.1665 11.649C19.1792 11.4892 19.8263 11.7728 19.8263 12.7298L19.7011 25.6961C19.6611 27.9382 20.3083 29.2976 21.9268 29.2976C24.7595 29.2976 27.6323 24.9359 27.6323 20.7747C27.6323 17.3329 23.9509 17.1324 23.9509 14.0508C23.9364 13.7111 23.9956 13.3723 24.1243 13.0571C24.253 12.7418 24.4484 12.4575 24.6973 12.223C24.9463 11.9885 25.243 11.8094 25.5676 11.6976C25.8922 11.5858 26.2372 11.5439 26.5796 11.5747C29.1719 11.5747 30.7504 13.8564 30.7504 17.8182Z" fill="black"/>
<path d="M34.1455 30.5047V30.3438C34.1455 29.3422 35.6827 29.0228 35.6827 27.3019V18.2578C35.6827 16.4972 34.1455 16.0565 34.1455 15.1762V15.0524C34.1455 14.6921 34.4685 14.4916 34.9955 14.2105L40.0526 11.7344C41.0652 11.254 41.7124 11.8136 41.7124 12.5342V27.3006C41.7124 29.0215 43.411 29.3409 43.411 30.3425V30.5035C43.411 30.9034 43.0468 31.1832 42.481 31.1832H35.0355C34.5085 31.1844 34.1455 30.9021 34.1455 30.5047ZM34.7126 5.61092C34.7252 5.11581 34.8413 4.62864 35.0536 4.18005C35.2658 3.73146 35.5695 3.33113 35.9458 3.00427C36.322 2.67741 36.7625 2.43106 37.2396 2.28073C37.7167 2.13039 38.2201 2.07932 38.7182 2.13071C39.2133 2.08107 39.7134 2.13466 40.1862 2.28804C40.659 2.44142 41.0941 2.69118 41.4633 3.02118C41.8325 3.35118 42.1276 3.7541 42.3296 4.20391C42.5316 4.65372 42.6359 5.14042 42.6359 5.63259C42.6359 6.12476 42.5316 6.61146 42.3296 7.06127C42.1276 7.51108 41.8325 7.91399 41.4633 8.24399C41.0941 8.57399 40.659 8.82374 40.1862 8.97712C39.7134 9.1305 39.2133 9.1841 38.7182 9.13445C38.2168 9.18456 37.7104 9.13118 37.231 8.97767C36.7516 8.82416 36.3096 8.57386 35.9331 8.24264C35.5566 7.91143 35.2537 7.5065 35.0436 7.05349C34.8335 6.60048 34.7207 6.10925 34.7126 5.61092Z" fill="black"/>
<path d="M46.3223 30.5047V30.3438C46.3223 29.3422 47.9007 29.0227 47.9007 27.3414V7.6562C47.9007 5.85482 46.3223 5.45368 46.3223 4.61427V4.45579C46.3223 4.0559 46.6452 3.85411 47.1309 3.65478L52.2281 1.17865C53.2808 0.657419 53.8879 1.21826 53.8879 1.8992V27.3501C53.8879 29.0314 55.6278 29.3508 55.6278 30.3524V30.5134C55.6278 30.9133 55.2235 31.1931 54.6965 31.1931H47.2511C46.6903 31.1844 46.3223 30.9046 46.3223 30.5047Z" fill="black"/>
<path d="M58.459 30.5047V30.3438C58.459 29.3422 60.0362 29.0227 60.0362 27.3414V7.6562C60.0362 5.85482 58.459 5.45368 58.459 4.61427V4.45579C58.459 4.0559 58.7819 3.85411 59.2676 3.65478L64.3648 1.17865C65.4163 0.657419 66.0246 1.21826 66.0246 1.8992V27.3501C66.0246 29.0314 67.7633 29.3508 67.7633 30.3524V30.5134C67.7633 30.9133 67.359 31.1931 66.8333 31.1931H59.3878C58.822 31.1844 58.459 30.9046 58.459 30.5047Z" fill="black"/>
<path d="M35.4707 37.9703H37.8791C38.2046 37.9634 38.5288 38.0116 38.8379 38.1126C39.0861 38.1945 39.3148 38.3255 39.5101 38.4977C39.6851 38.6555 39.8219 38.8501 39.9107 39.0672C39.9995 39.2882 40.0445 39.524 40.0434 39.7617C40.0449 39.972 40.0023 40.1803 39.9182 40.3734C39.8449 40.5429 39.7438 40.6993 39.619 40.8364C39.5086 40.9586 39.3788 41.0623 39.2347 41.1434C39.1196 41.2125 38.9921 41.2591 38.8592 41.2809C39.0304 41.3064 39.1984 41.3505 39.3599 41.4121C39.7572 41.5594 40.0806 41.8544 40.2612 42.2342C40.3747 42.4841 40.4291 42.7564 40.4202 43.0302C40.432 43.3567 40.3601 43.6808 40.2111 43.9724C40.0768 44.2179 39.8828 44.4264 39.6466 44.5791C39.3884 44.7408 39.1011 44.8517 38.8004 44.9059C38.4558 44.9703 38.1058 45.0018 37.7552 45H35.4757L35.4707 37.9703ZM37.7239 40.9008C37.8821 40.8997 38.0397 40.8801 38.1933 40.8426C38.3448 40.8056 38.4887 40.7432 38.6189 40.6581C38.7463 40.5741 38.8525 40.4623 38.9293 40.3313C39.0109 40.1826 39.0511 40.0151 39.0457 39.8459C39.0535 39.6683 39.0133 39.4918 38.9293 39.3346C38.8537 39.2083 38.7469 39.1031 38.6189 39.0288C38.4875 38.954 38.3432 38.904 38.1933 38.8815C38.038 38.8571 37.8811 38.8446 37.7239 38.8443H36.4558V40.9008H37.7239ZM37.6913 44.1197C37.8837 44.1193 38.0759 44.109 38.2671 44.0888C38.4568 44.0695 38.642 44.0197 38.8154 43.9415C38.9807 43.8654 39.1225 43.747 39.226 43.5985C39.3293 43.4082 39.3834 43.1955 39.3834 42.9795C39.3834 42.7634 39.3293 42.5508 39.226 42.3604C39.1264 42.2077 38.9917 42.0804 38.8329 41.989C38.6696 41.8967 38.4906 41.8346 38.3047 41.8058C38.1215 41.7745 37.936 41.7583 37.7502 41.7575H36.4508V44.1185L37.6913 44.1197Z" fill="black"/>
<path d="M45.967 37.9703H47.0109L49.7923 45H48.652L47.9172 43.0402H44.9968L44.2621 45H43.1855L45.967 37.9703ZM47.608 42.1797L46.4564 39.092L45.2948 42.1797H47.608Z" fill="black"/>
<path d="M52.8486 37.9703H53.8838L57.7643 43.4623V37.9703H58.7657V45H57.7418L53.8525 39.4993V45H52.8511L52.8486 37.9703Z" fill="black"/>
<path d="M62.5137 37.9703H63.5264V41.1632L66.498 37.9703H67.6709L65.0285 40.8364L67.9901 44.9988H66.7646L64.335 41.5532L63.5264 42.4199V45.0013H62.5137V37.9703Z" fill="black"/>
</g>
<defs>
<clipPath id="clip0_404_59">
<rect width="105" height="45" fill="white"/>
</clipPath>
</defs>
</svg>
